# Blender 4.2.0
# www.blender.org
mtllib floor4.mtl
o Floor4
v -0.714286 1.011446 -0.714286
v -0.428571 1.005303 -0.714286
v -0.142857 1.000000 -0.714286
v 0.142857 1.000000 -0.714286
v 0.428571 0.952853 -0.714286
v 0.714286 1.000000 -0.714286
v -0.714286 0.952853 -0.428571
v -0.428571 1.000000 -0.428571
v -0.142857 1.000000 -0.428571
v 0.142857 1.000000 -0.428571
v 0.428571 1.000000 -0.428571
v 0.714286 1.000000 -0.428571
v -0.714286 1.000000 -0.142857
v -0.428571 1.000000 -0.142857
v -0.142857 1.000000 -0.142857
v 0.142857 0.981216 -0.142857
v 0.428571 0.977051 -0.142857
v 0.714286 0.983084 -0.142857
v -0.714286 1.000000 0.142857
v -0.428571 0.952853 0.142857
v -0.142857 1.000000 0.142857
v 0.142857 1.005414 0.142857
v 0.428571 1.000000 0.142857
v 0.714286 1.000000 0.142857
v -0.714286 1.000000 0.428571
v -0.428571 0.983084 0.428571
v -0.142857 1.028252 0.428571
v 0.142857 1.000000 0.428571
v 0.428571 1.000000 0.428571
v 0.714286 1.056615 0.428571
v -0.714286 0.983084 0.714286
v -0.428571 1.000000 0.714286
v -0.142857 1.028252 0.714286
v 0.142857 1.000000 0.714286
v 0.428571 1.000000 0.714286
v 0.714286 0.977051 0.714286
v -1.000000 -0.980000 0.980000
v -0.980000 -1.000000 0.980000
v -0.980000 -0.980000 1.000000
v -0.980000 0.980000 1.000000
v -0.980000 1.000000 0.980000
v -1.000000 0.980000 0.980000
v -1.000000 -0.980000 -0.980000
v -0.980000 -0.980000 -1.000000
v -0.980000 -1.000000 -0.980000
v -1.000000 0.980000 -0.980000
v -0.980000 1.000000 -0.980000
v -0.980000 0.980000 -1.000000
v 1.000000 -0.980000 0.980000
v 0.980000 -0.980000 1.000000
v 0.980000 -1.000000 0.980000
v 1.000000 0.980000 0.980000
v 0.980000 1.000000 0.980000
v 0.980000 0.980000 1.000000
v 1.000000 -0.980000 -0.980000
v 0.980000 -1.000000 -0.980000
v 0.980000 -0.980000 -1.000000
v 0.980000 0.980000 -1.000000
v 0.980000 1.000000 -0.980000
v 1.000000 0.980000 -0.980000
v -0.980035 0.998818 0.714286
v -1.000000 0.980000 0.714286
v -0.980000 1.000000 0.428571
v -1.000000 0.980000 0.428571
v -0.980000 1.000000 0.142857
v -1.000000 0.980000 0.142857
v -0.980000 1.000000 -0.142857
v -1.000000 0.980000 -0.142857
v -0.980267 0.996744 -0.428571
v -1.000000 0.980000 -0.428571
v -1.000000 0.980000 -0.714286
v -0.980016 1.000801 -0.714286
v 0.980000 1.000000 -0.714286
v 1.000000 0.980000 -0.714286
v 0.980000 1.000000 -0.428571
v 1.000000 0.980000 -0.428571
v 0.980035 0.998818 -0.142857
v 1.000000 0.980000 -0.142857
v 0.980000 1.000000 0.142857
v 1.000000 0.980000 0.142857
v 0.980381 1.003888 0.428571
v 1.000000 0.980000 0.428571
v 1.000000 0.980000 0.714286
v 0.980064 0.998399 0.714286
v -0.714286 1.000801 -0.980016
v -0.714286 0.980000 -1.000000
v -0.428571 1.000371 -0.980003
v -0.428571 0.980000 -1.000000
v -0.142857 1.000000 -0.980000
v -0.142857 0.980000 -1.000000
v 0.142857 1.000000 -0.980000
v 0.142857 0.980000 -1.000000
v 0.428571 0.996744 -0.980267
v 0.428571 0.980000 -1.000000
v 0.714286 0.980000 -1.000000
v 0.714286 1.000000 -0.980000
v 0.714286 0.998399 0.980064
v 0.714286 0.980000 1.000000
v 0.428571 1.000000 0.980000
v 0.428571 0.980000 1.000000
v 0.142857 1.000000 0.980000
v 0.142857 0.980000 1.000000
v -0.142857 1.001968 0.980097
v -0.142857 0.980000 1.000000
v -0.428571 1.000000 0.980000
v -0.428571 0.980000 1.000000
v -0.714286 0.980000 1.000000
v -0.714286 0.998818 0.980035
vn -0.0000 -0.0000 -1.0000
vn 1.0000 -0.0000 -0.0000
vn -0.0000 1.0000 -0.0000
vn 0.0620 0.9921 0.1088
vn 0.0820 0.9928 -0.0876
vn 0.0115 0.9995 -0.0293
vn -0.0583 0.9888 0.1377
vn 0.0984 0.9951 -0.0000
vn -0.1274 0.9914 -0.0293
vn 0.0583 0.9874 0.1470
vn -0.0981 0.9903 -0.0981
vn 0.0095 0.9999 0.0095
vn 0.0399 0.9984 -0.0399
vn -0.1587 0.9822 -0.1005
vn 0.1113 0.9924 -0.0525
vn 0.0981 0.9896 -0.1048
vn -0.0105 0.9975 -0.0696
vn 0.0167 0.9965 -0.0822
vn 0.0234 0.9988 -0.0423
vn -0.0820 0.9933 0.0820
vn 0.0820 0.9933 0.0820
vn -0.0296 0.9991 -0.0316
vn -0.0105 0.9975 0.0696
vn 0.0073 0.9973 0.0728
vn 0.0328 0.9989 0.0328
vn -0.0820 0.9933 -0.0820
vn -0.0296 0.9991 0.0316
vn 0.0820 0.9933 -0.0820
vn 0.0093 0.9999 0.0093
vn -0.0711 0.9913 0.1108
vn 0.0296 0.9991 0.0316
vn 0.0429 0.9983 -0.0401
vn -0.0876 0.9928 0.0820
vn 0.0876 0.9928 0.0820
vn 0.0099 0.9999 -0.0093
vn 0.0528 0.9974 0.0493
vn -0.0528 0.9974 0.0493
vn -0.0316 0.9991 -0.0296
vn -0.0000 -0.0000 1.0000
vn -0.0215 0.9995 -0.0215
vn 0.0318 0.9990 -0.0318
vn -0.0000 -1.0000 -0.0000
vn -0.0431 0.9981 -0.0431
vn -0.5774 -0.5774 0.5774
vn -0.5774 0.5774 0.5774
vn -0.5774 -0.5774 -0.5774
vn -0.5774 0.5774 -0.5774
vn 0.5774 -0.5774 0.5774
vn 0.5774 0.5774 0.5774
vn 0.5774 -0.5774 -0.5774
vn 0.5774 0.5774 -0.5774
vn -0.7142 0.6999 -0.0011
vn -0.0000 0.7071 -0.7071
vn 0.6931 0.7208 -0.0021
vn 0.0015 0.7173 0.6967
vn -0.7071 -0.7071 -0.0000
vn -0.6967 0.7173 -0.0015
vn -0.6967 0.7173 0.0014
vn -0.7071 0.7071 -0.0000
vn -0.6789 0.7342 -0.0039
vn -0.6869 0.7267 0.0049
vn 0.7071 -0.7071 -0.0000
vn 0.7071 0.7071 -0.0000
vn 0.6967 0.7173 0.0014
vn 0.6967 0.7173 -0.0014
vn 0.7423 0.6701 -0.0051
vn 0.7303 0.6831 0.0070
vn -0.0000 -0.7071 -0.7071
vn -0.0011 0.6999 -0.7142
vn 0.0005 0.6967 -0.7174
vn 0.0005 0.7038 -0.7104
vn 0.0039 0.7342 -0.6789
vn -0.0039 0.7342 -0.6789
vn -0.0000 -0.7071 0.7071
vn -0.0021 0.7208 0.6931
vn 0.0019 0.7208 0.6931
vn -0.0000 0.7071 0.7071
vn 0.0025 0.6890 0.7247
vn -0.0025 0.6890 0.7247
vn -0.0014 0.7173 0.6967
vn -0.7071 -0.0000 0.7071
vn -0.7071 -0.0000 -0.7071
vn 0.7071 -0.0000 -0.7071
vn 0.7071 -0.0000 0.7071
vn -1.0000 -0.0000 -0.0000
vt 0.377500 0.252500
vt 0.622500 0.252500
vt 0.622500 0.285714
vt 0.622500 0.321429
vt 0.622500 0.357143
vt 0.622500 0.392857
vt 0.622500 0.428571
vt 0.622500 0.464286
vt 0.622500 0.497500
vt 0.377500 0.497500
vt 0.377500 0.502500
vt 0.622500 0.502500
vt 0.622500 0.535714
vt 0.622500 0.571428
vt 0.622500 0.607143
vt 0.622500 0.642857
vt 0.622500 0.678571
vt 0.622500 0.714286
vt 0.622500 0.747500
vt 0.377500 0.747500
vt 0.627500 0.535714
vt 0.660714 0.535714
vt 0.660714 0.571429
vt 0.627500 0.571429
vt 0.839286 0.535714
vt 0.872502 0.535714
vt 0.872533 0.571428
vt 0.839286 0.571429
vt 0.872533 0.571429
vt 0.872500 0.607143
vt 0.839286 0.607143
vt 0.872500 0.607143
vt 0.872500 0.642857
vt 0.839286 0.642857
vt 0.872500 0.678571
vt 0.839286 0.678571
vt 0.803571 0.502500
vt 0.839286 0.502498
vt 0.803571 0.535714
vt 0.660714 0.678571
vt 0.696429 0.678571
vt 0.696429 0.714286
vt 0.660714 0.714286
vt 0.732143 0.678571
vt 0.732143 0.714286
vt 0.767857 0.678571
vt 0.767857 0.714286
vt 0.803571 0.678571
vt 0.803571 0.714286
vt 0.839286 0.714286
vt 0.627452 0.678571
vt 0.627492 0.714286
vt 0.660714 0.642857
vt 0.696429 0.642857
vt 0.732143 0.642857
vt 0.767857 0.642857
vt 0.803571 0.642857
vt 0.627500 0.642857
vt 0.660714 0.607143
vt 0.696429 0.607143
vt 0.732143 0.607143
vt 0.767857 0.607143
vt 0.803571 0.607143
vt 0.627496 0.607143
vt 0.627500 0.642857
vt 0.696429 0.571429
vt 0.732143 0.571429
vt 0.767857 0.571429
vt 0.803571 0.571429
vt 0.696429 0.535714
vt 0.732143 0.535714
vt 0.767857 0.535714
vt 0.872504 0.714286
vt 0.696429 0.747500
vt 0.660714 0.747508
vt 0.660714 0.502500
vt 0.696429 0.502467
vt 0.696429 0.502467
vt 0.732143 0.502500
vt 0.767857 0.502500
vt 0.627500 0.502500
vt 0.660714 0.502500
vt 0.627500 0.535714
vt 0.732143 0.747500
vt 0.696429 0.747500
vt 0.767857 0.747512
vt 0.732143 0.747500
vt 0.803571 0.747500
vt 0.767857 0.747512
vt 0.839286 0.747504
vt 0.803571 0.747500
vt 0.377500 0.752500
vt 0.622500 0.752500
vt 0.622500 0.785714
vt 0.622500 0.821429
vt 0.622500 0.857143
vt 0.622500 0.892857
vt 0.622500 0.928571
vt 0.622500 0.964286
vt 0.622500 0.997500
vt 0.377500 0.997500
vt 0.872500 0.502500
vt 0.872501 0.747501
vt 0.839286 0.747504
vt 0.127500 0.502500
vt 0.372500 0.502500
vt 0.372500 0.747500
vt 0.127500 0.747500
vt 0.627492 0.714286
vt 0.627498 0.747502
vt 0.125000 0.747500
vt 0.127500 0.750000
vt 0.622500 0.000000
vt 0.625000 0.002500
vt 0.622500 0.002500
vt 0.125000 0.502500
vt 0.127500 0.500000
vt 0.622500 0.247500
vt 0.625000 0.247500
vt 0.622500 0.250000
vt 0.375000 0.747500
vt 0.372500 0.750000
vt 0.622500 0.750000
vt 0.625000 0.752500
vt 0.375000 0.502500
vt 0.372500 0.500000
vt 0.625000 0.497500
vt 0.622500 0.500000
vt 0.625000 0.214286
vt 0.622500 0.214286
vt 0.625000 0.464286
vt 0.625000 0.964286
vt 0.625000 0.997500
vt 0.625000 0.035714
vt 0.622500 0.035714
vt 0.625000 0.071429
vt 0.622500 0.071429
vt 0.625000 0.107143
vt 0.622500 0.107143
vt 0.625000 0.142857
vt 0.622500 0.142857
vt 0.625000 0.178571
vt 0.622500 0.178571
vt 0.625000 0.252500
vt 0.625000 0.285714
vt 0.625000 0.321429
vt 0.625000 0.357143
vt 0.625000 0.392857
vt 0.625000 0.428571
vt 0.625000 0.785714
vt 0.625000 0.821429
vt 0.625000 0.857143
vt 0.625000 0.892857
vt 0.625000 0.928571
vt 0.377500 0.000000
vt 0.377500 0.002500
vt 0.377500 0.247500
s 0
f 44/1/1 48/2/1 86/3/1 88/4/1 90/5/1 92/6/1 94/7/1 95/8/1 58/9/1 57/10/1
f 55/11/2 60/12/2 74/13/2 76/14/2 78/15/2 80/16/2 82/17/2 83/18/2 52/19/2 49/20/2
f 73/21/3 6/22/3 12/23/3 75/24/3
f 1/25/4 72/26/4 69/27/4 7/28/4
f 7/28/5 69/29/5 67/30/5 13/31/5
f 13/31/3 67/32/3 65/33/3 19/34/3
f 19/34/3 65/33/3 63/35/3 25/36/3
f 87/37/6 85/38/6 1/25/6 2/39/6
f 30/40/7 29/41/7 35/42/7 36/43/7
f 29/41/3 28/44/3 34/45/3 35/42/3
f 28/44/8 27/46/8 33/47/8 34/45/8
f 27/46/9 26/48/9 32/49/9 33/47/9
f 26/48/3 25/36/3 31/50/3 32/49/3
f 81/51/10 30/40/10 36/43/10 84/52/10
f 24/53/11 23/54/11 29/41/11 30/40/11
f 23/54/12 22/55/12 28/44/12 29/41/12
f 22/55/13 21/56/13 27/46/13 28/44/13
f 21/56/14 20/57/14 26/48/14 27/46/14
f 20/57/15 19/34/15 25/36/15 26/48/15
f 79/58/16 24/53/16 30/40/16 81/51/16
f 18/59/17 17/60/17 23/54/17 24/53/17
f 17/60/18 16/61/18 22/55/18 23/54/18
f 16/61/19 15/62/19 21/56/19 22/55/19
f 15/62/20 14/63/20 20/57/20 21/56/20
f 14/63/21 13/31/21 19/34/21 20/57/21
f 77/64/22 18/59/22 24/53/22 79/65/22
f 12/23/23 11/66/23 17/60/23 18/59/23
f 11/66/24 10/67/24 16/61/24 17/60/24
f 10/67/25 9/68/25 15/62/25 16/61/25
f 9/68/3 8/69/3 14/63/3 15/62/3
f 8/69/26 7/28/26 13/31/26 14/63/26
f 75/24/27 12/23/27 18/59/27 77/64/27
f 6/22/26 5/70/26 11/66/26 12/23/26
f 5/70/28 4/71/28 10/67/28 11/66/28
f 4/71/3 3/72/3 9/68/3 10/67/3
f 3/72/29 2/39/29 8/69/29 9/68/29
f 2/39/30 1/25/30 7/28/30 8/69/30
f 25/36/31 63/35/31 61/73/31 31/50/31
f 36/43/32 35/42/32 99/74/32 97/75/32
f 96/76/33 93/77/33 5/70/33 6/22/33
f 93/78/34 91/79/34 4/71/34 5/70/34
f 91/79/3 89/80/3 3/72/3 4/71/3
f 89/80/35 87/37/35 2/39/35 3/72/35
f 59/81/3 96/82/3 6/22/3 73/83/3
f 35/42/3 34/45/3 101/84/3 99/85/3
f 34/45/36 33/47/36 103/86/36 101/87/36
f 33/47/37 32/49/37 105/88/37 103/89/37
f 32/49/38 31/50/38 108/90/38 105/91/38
f 50/92/39 54/93/39 98/94/39 100/95/39 102/96/39 104/97/39 106/98/39 107/99/39 40/100/39 39/101/39
f 85/38/40 47/102/40 72/26/40 1/25/40
f 31/50/41 61/73/41 41/103/41 108/104/41
f 45/105/42 56/106/42 51/107/42 38/108/42
f 84/109/43 36/43/43 97/75/43 53/110/43
f 37/111/44 38/108/44 39/112/44
f 40/113/45 41/114/45 42/115/45
f 43/116/46 44/117/46 45/105/46
f 46/118/47 47/119/47 48/120/47
f 49/121/48 50/122/48 51/107/48
f 52/123/49 53/124/49 54/93/49
f 55/125/50 56/106/50 57/126/50
f 58/9/51 59/127/51 60/128/51
f 72/129/52 47/119/52 46/118/52 71/130/52
f 96/131/53 59/127/53 58/9/53 95/8/53
f 84/109/54 53/110/54 52/19/54 83/18/54
f 108/132/55 41/133/55 40/100/55 107/99/55
f 45/105/56 38/108/56 37/111/56 43/116/56
f 41/114/57 61/134/57 62/135/57 42/115/57
f 61/134/58 63/136/58 64/137/58 62/135/58
f 63/136/59 65/138/59 66/139/59 64/137/59
f 65/138/59 67/140/59 68/141/59 66/139/59
f 67/140/60 69/142/60 70/143/60 68/141/60
f 69/142/61 72/129/61 71/130/61 70/143/61
f 51/107/62 56/106/62 55/11/62 49/20/62
f 59/81/63 73/83/63 74/13/63 60/12/63
f 73/21/63 75/24/63 76/14/63 74/13/63
f 75/24/64 77/64/64 78/15/64 76/14/64
f 77/64/65 79/65/65 80/16/65 78/15/65
f 79/58/66 81/51/66 82/17/66 80/16/66
f 81/51/67 84/52/67 83/18/67 82/17/67
f 56/106/68 45/105/68 44/117/68 57/126/68
f 47/144/69 85/145/69 86/3/69 48/2/69
f 85/145/70 87/146/70 88/4/70 86/3/70
f 87/146/71 89/147/71 90/5/71 88/4/71
f 89/147/53 91/148/53 92/6/53 90/5/53
f 91/148/72 93/149/72 94/7/72 92/6/72
f 93/149/73 96/131/73 95/8/73 94/7/73
f 38/108/74 51/107/74 50/122/74 39/112/74
f 53/124/75 97/150/75 98/94/75 54/93/75
f 97/150/76 99/151/76 100/95/76 98/94/76
f 99/151/77 101/152/77 102/96/77 100/95/77
f 101/152/78 103/153/78 104/97/78 102/96/78
f 103/153/79 105/154/79 106/98/79 104/97/79
f 105/154/80 108/132/80 107/99/80 106/98/80
f 39/155/81 40/113/81 42/115/81 37/156/81
f 48/2/82 44/1/82 43/157/82 46/118/82
f 60/12/83 55/11/83 57/10/83 58/9/83
f 54/93/84 50/92/84 49/20/84 52/19/84
f 37/156/85 42/115/85 62/135/85 64/137/85 66/139/85 68/141/85 70/143/85 71/130/85 46/118/85 43/157/85
