# Blender 4.2.0
# www.blender.org
mtllib floor2.mtl
o Floor2
v -0.714286 1.000000 -0.714286
v -0.428571 0.977364 -0.714286
v -0.142857 0.970404 -0.714286
v 0.142857 1.000000 -0.714286
v 0.428571 1.000000 -0.714286
v 0.714286 1.000000 -0.714286
v -0.714286 0.973777 -0.428571
v -0.428571 0.970404 -0.428571
v -0.142857 1.000000 -0.428571
v 0.142857 0.997201 -0.428571
v 0.428571 1.000000 -0.428571
v 0.714286 1.026797 -0.428571
v -0.714286 1.000000 -0.142857
v -0.428571 1.000000 -0.142857
v -0.142857 1.000000 -0.142857
v 0.142857 0.952808 -0.142857
v 0.428571 0.977364 -0.142857
v 0.714286 1.000000 -0.142857
v -0.714286 1.000000 0.142857
v -0.428571 0.962112 0.142857
v -0.142857 0.970404 0.142857
v 0.142857 0.973777 0.142857
v 0.428571 0.973777 0.142857
v 0.714286 1.000000 0.142857
v -0.714286 1.000000 0.428571
v -0.428571 1.026797 0.428571
v -0.142857 1.000000 0.428571
v 0.142857 1.000000 0.428571
v 0.428571 1.000000 0.428571
v 0.714286 1.000000 0.428571
v -0.714286 1.000000 0.714286
v -0.428571 1.004161 0.714286
v -0.142857 1.000000 0.714286
v 0.142857 0.965882 0.714286
v 0.428571 1.000000 0.714286
v 0.714286 1.000000 0.714286
v -1.000000 -0.980000 0.980000
v -0.980000 -1.000000 0.980000
v -0.980000 -0.980000 1.000000
v -0.980000 0.980000 1.000000
v -0.980000 1.000000 0.980000
v -1.000000 0.980000 0.980000
v -1.000000 -0.980000 -0.980000
v -0.980000 -0.980000 -1.000000
v -0.980000 -1.000000 -0.980000
v -1.000000 0.980000 -0.980000
v -0.980000 1.000000 -0.980000
v -0.980000 0.980000 -1.000000
v 1.000000 -0.980000 0.980000
v 0.980000 -0.980000 1.000000
v 0.980000 -1.000000 0.980000
v 1.000000 0.980000 0.980000
v 0.980000 1.000000 0.980000
v 0.980000 0.980000 1.000000
v 1.000000 -0.980000 -0.980000
v 0.980000 -1.000000 -0.980000
v 0.980000 -0.980000 -1.000000
v 0.980000 0.980000 -1.000000
v 0.980000 1.000000 -0.980000
v 1.000000 0.980000 -0.980000
v -0.980000 1.000000 0.714286
v -1.000000 0.980000 0.714286
v -0.980000 1.000000 0.428571
v -1.000000 0.980000 0.428571
v -0.980000 1.000000 0.142857
v -1.000000 0.980000 0.142857
v -0.980000 1.000000 -0.142857
v -1.000000 0.980000 -0.142857
v -0.980084 0.998172 -0.428571
v -1.000000 0.980000 -0.428571
v -1.000000 0.980000 -0.714286
v -0.980000 1.000000 -0.714286
v 0.980000 1.000000 -0.714286
v 1.000000 0.980000 -0.714286
v 0.980087 1.001868 -0.428571
v 1.000000 0.980000 -0.428571
v 0.980000 1.000000 -0.142857
v 1.000000 0.980000 -0.142857
v 0.980000 1.000000 0.142857
v 1.000000 0.980000 0.142857
v 0.980000 1.000000 0.428571
v 1.000000 0.980000 0.428571
v 1.000000 0.980000 0.714286
v 0.980000 1.000000 0.714286
v -0.714286 1.000000 -0.980000
v -0.714286 0.980000 -1.000000
v -0.428571 0.998420 -0.980062
v -0.428571 0.980000 -1.000000
v -0.142857 0.997939 -0.980106
v -0.142857 0.980000 -1.000000
v 0.142857 1.000000 -0.980000
v 0.142857 0.980000 -1.000000
v 0.428571 1.000000 -0.980000
v 0.428571 0.980000 -1.000000
v 0.714286 0.980000 -1.000000
v 0.714286 1.000000 -0.980000
v 0.714286 1.000000 0.980000
v 0.714286 0.980000 1.000000
v 0.428571 1.000000 0.980000
v 0.428571 0.980000 1.000000
v 0.142857 0.997629 0.980141
v 0.142857 0.980000 1.000000
v -0.142857 1.000000 0.980000
v -0.142857 0.980000 1.000000
v -0.428571 1.000291 0.980002
v -0.428571 0.980000 1.000000
v -0.714286 0.980000 1.000000
v -0.714286 1.000000 0.980000
vn -0.0000 -0.0000 -1.0000
vn 1.0000 -0.0000 -0.0000
vn 0.0468 0.9976 -0.0501
vn 0.0458 0.9977 0.0490
vn 0.0458 0.9977 -0.0490
vn -0.0000 1.0000 -0.0000
vn 0.0423 0.9983 0.0396
vn -0.0595 0.9965 0.0595
vn 0.0595 0.9965 0.0595
vn 0.0541 0.9978 0.0395
vn -0.0541 0.9978 0.0395
vn -0.0458 0.9979 -0.0458
vn -0.0000 0.9958 -0.0914
vn -0.0059 0.9952 -0.0972
vn 0.0319 0.9862 -0.1627
vn 0.0193 0.9935 -0.1125
vn -0.0852 0.9963 0.0063
vn -0.0429 0.9986 -0.0304
vn 0.0765 0.9970 0.0151
vn -0.0144 0.9930 0.1173
vn 0.0660 0.9956 0.0660
vn -0.0859 0.9926 0.0859
vn -0.0475 0.9921 0.1164
vn 0.0869 0.9932 0.0772
vn -0.0517 0.9973 -0.0517
vn 0.0059 0.9952 -0.0972
vn 0.0468 0.9976 0.0501
vn -0.0468 0.9978 -0.0468
vn -0.0049 1.0000 0.0049
vn -0.0396 0.9984 -0.0396
vn 0.0454 0.9973 0.0579
vn -0.0552 0.9971 0.0517
vn 0.0130 0.9958 0.0910
vn -0.0636 0.9962 -0.0595
vn 0.0636 0.9962 -0.0595
vn 0.0078 0.9999 0.0073
vn -0.0078 0.9999 0.0073
vn -0.0000 -0.0000 1.0000
vn -0.0000 -1.0000 -0.0000
vn -0.5774 -0.5774 0.5774
vn -0.5774 0.5774 0.5774
vn -0.5774 -0.5774 -0.5774
vn -0.5774 0.5774 -0.5774
vn 0.5774 -0.5774 0.5774
vn 0.5774 0.5774 0.5774
vn 0.5774 -0.5774 -0.5774
vn 0.5774 0.5774 -0.5774
vn -0.7071 0.7071 -0.0000
vn -0.0000 0.7071 -0.7071
vn 0.7071 0.7071 -0.0000
vn -0.0000 0.7071 0.7071
vn -0.7071 -0.7071 -0.0000
vn -0.6911 0.7227 -0.0022
vn -0.6911 0.7227 0.0022
vn 0.7071 -0.7071 -0.0000
vn 0.7238 0.6900 -0.0024
vn 0.7238 0.6900 0.0024
vn -0.0000 -0.7071 -0.7071
vn 0.0019 0.7207 -0.6933
vn 0.0006 0.7386 -0.6742
vn -0.0025 0.7246 -0.6891
vn -0.0000 -0.7071 0.7071
vn -0.0028 0.7272 0.6865
vn 0.0028 0.7272 0.6865
vn 0.0004 0.7045 0.7097
vn -0.0004 0.7045 0.7097
vn -0.7071 -0.0000 0.7071
vn -0.7071 -0.0000 -0.7071
vn 0.7071 -0.0000 -0.7071
vn 0.7071 -0.0000 0.7071
vn -1.0000 -0.0000 -0.0000
vt 0.377500 0.252500
vt 0.622500 0.252500
vt 0.622500 0.285714
vt 0.622500 0.321429
vt 0.622500 0.357143
vt 0.622500 0.392857
vt 0.622500 0.428571
vt 0.622500 0.464286
vt 0.622500 0.497500
vt 0.377500 0.497500
vt 0.377500 0.502500
vt 0.622500 0.502500
vt 0.622500 0.535714
vt 0.622500 0.571428
vt 0.622500 0.607143
vt 0.622500 0.642857
vt 0.622500 0.678571
vt 0.622500 0.714286
vt 0.622500 0.747500
vt 0.377500 0.747500
vt 0.627500 0.535714
vt 0.660714 0.535714
vt 0.660714 0.571429
vt 0.627489 0.571429
vt 0.839286 0.535714
vt 0.872500 0.535714
vt 0.872510 0.571429
vt 0.839286 0.571429
vt 0.872500 0.607143
vt 0.839286 0.607143
vt 0.872500 0.642857
vt 0.839286 0.642857
vt 0.872500 0.678571
vt 0.839286 0.678571
vt 0.803571 0.502492
vt 0.839286 0.502500
vt 0.803571 0.535714
vt 0.660714 0.678571
vt 0.696429 0.678571
vt 0.696429 0.714286
vt 0.660714 0.714286
vt 0.732143 0.678571
vt 0.732143 0.714286
vt 0.767857 0.678571
vt 0.767857 0.714286
vt 0.803571 0.678571
vt 0.803571 0.714286
vt 0.839286 0.714286
vt 0.627500 0.678571
vt 0.627500 0.714286
vt 0.660714 0.642857
vt 0.696429 0.642857
vt 0.732143 0.642857
vt 0.767857 0.642857
vt 0.803571 0.642857
vt 0.627500 0.642857
vt 0.627500 0.678571
vt 0.660714 0.607143
vt 0.696429 0.607143
vt 0.732143 0.607143
vt 0.767857 0.607143
vt 0.803571 0.607143
vt 0.627500 0.607143
vt 0.627500 0.642857
vt 0.696429 0.571429
vt 0.732143 0.571429
vt 0.767857 0.571429
vt 0.803571 0.571429
vt 0.627489 0.571429
vt 0.627500 0.607143
vt 0.696429 0.535714
vt 0.732143 0.535714
vt 0.767857 0.535714
vt 0.872500 0.714286
vt 0.696429 0.747500
vt 0.660714 0.747500
vt 0.660714 0.502500
vt 0.696429 0.502500
vt 0.732143 0.502500
vt 0.767857 0.502487
vt 0.627500 0.502500
vt 0.660714 0.502500
vt 0.732143 0.747518
vt 0.767857 0.747500
vt 0.803571 0.747500
vt 0.767857 0.747500
vt 0.839286 0.747500
vt 0.803571 0.747500
vt 0.377500 0.752500
vt 0.622500 0.752500
vt 0.622500 0.785714
vt 0.622500 0.821429
vt 0.622500 0.857143
vt 0.622500 0.892857
vt 0.622500 0.928571
vt 0.622500 0.964286
vt 0.622500 0.997500
vt 0.377500 0.997500
vt 0.872500 0.502500
vt 0.872500 0.747500
vt 0.127500 0.502500
vt 0.372500 0.502500
vt 0.372500 0.747500
vt 0.127500 0.747500
vt 0.627500 0.714286
vt 0.660714 0.747500
vt 0.627500 0.747500
vt 0.125000 0.747500
vt 0.127500 0.750000
vt 0.622500 0.000000
vt 0.625000 0.002500
vt 0.622500 0.002500
vt 0.125000 0.502500
vt 0.127500 0.500000
vt 0.622500 0.247500
vt 0.625000 0.247500
vt 0.622500 0.250000
vt 0.375000 0.747500
vt 0.372500 0.750000
vt 0.622500 0.750000
vt 0.625000 0.752500
vt 0.375000 0.502500
vt 0.372500 0.500000
vt 0.625000 0.497500
vt 0.622500 0.500000
vt 0.625000 0.214286
vt 0.622500 0.214286
vt 0.625000 0.464286
vt 0.625000 0.964286
vt 0.625000 0.997500
vt 0.625000 0.035714
vt 0.622500 0.035714
vt 0.625000 0.071429
vt 0.622500 0.071429
vt 0.625000 0.107143
vt 0.622500 0.107143
vt 0.625000 0.142857
vt 0.622500 0.142857
vt 0.625000 0.178571
vt 0.622500 0.178571
vt 0.625000 0.252500
vt 0.625000 0.285714
vt 0.625000 0.321429
vt 0.625000 0.357143
vt 0.625000 0.392857
vt 0.625000 0.428571
vt 0.625000 0.785714
vt 0.625000 0.821429
vt 0.625000 0.857143
vt 0.625000 0.892857
vt 0.625000 0.928571
vt 0.377500 0.000000
vt 0.377500 0.002500
vt 0.377500 0.247500
s 0
f 44/1/1 48/2/1 86/3/1 88/4/1 90/5/1 92/6/1 94/7/1 95/8/1 58/9/1 57/10/1
f 55/11/2 60/12/2 74/13/2 76/14/2 78/15/2 80/16/2 82/17/2 83/18/2 52/19/2 49/20/2
f 73/21/3 6/22/3 12/23/3 75/24/3
f 1/25/4 72/26/4 69/27/4 7/28/4
f 7/28/5 69/27/5 67/29/5 13/30/5
f 13/30/6 67/29/6 65/31/6 19/32/6
f 19/32/6 65/31/6 63/33/6 25/34/6
f 87/35/7 85/36/7 1/25/7 2/37/7
f 30/38/6 29/39/6 35/40/6 36/41/6
f 29/39/8 28/42/8 34/43/8 35/40/8
f 28/42/9 27/44/9 33/45/9 34/43/9
f 27/44/10 26/46/10 32/47/10 33/45/10
f 26/46/11 25/34/11 31/48/11 32/47/11
f 81/49/6 30/38/6 36/41/6 84/50/6
f 24/51/12 23/52/12 29/39/12 30/38/12
f 23/52/13 22/53/13 28/42/13 29/39/13
f 22/53/14 21/54/14 27/44/14 28/42/14
f 21/54/15 20/55/15 26/46/15 27/44/15
f 20/55/16 19/32/16 25/34/16 26/46/16
f 79/56/6 24/51/6 30/38/6 81/57/6
f 18/58/17 17/59/17 23/52/17 24/51/17
f 17/59/18 16/60/18 22/53/18 23/52/18
f 16/60/19 15/61/19 21/54/19 22/53/19
f 15/61/20 14/62/20 20/55/20 21/54/20
f 14/62/21 13/30/21 19/32/21 20/55/21
f 77/63/6 18/58/6 24/51/6 79/64/6
f 12/23/22 11/65/22 17/59/22 18/58/22
f 11/65/23 10/66/23 16/60/23 17/59/23
f 10/66/24 9/67/24 15/61/24 16/60/24
f 9/67/25 8/68/25 14/62/25 15/61/25
f 8/68/26 7/28/26 13/30/26 14/62/26
f 75/69/27 12/23/27 18/58/27 77/70/27
f 6/22/28 5/71/28 11/65/28 12/23/28
f 5/71/29 4/72/29 10/66/29 11/65/29
f 4/72/28 3/73/28 9/67/28 10/66/28
f 3/73/30 2/37/30 8/68/30 9/67/30
f 2/37/31 1/25/31 7/28/31 8/68/31
f 25/34/6 63/33/6 61/74/6 31/48/6
f 36/41/6 35/40/6 99/75/6 97/76/6
f 96/77/6 93/78/6 5/71/6 6/22/6
f 93/78/6 91/79/6 4/72/6 5/71/6
f 91/79/32 89/80/32 3/73/32 4/72/32
f 89/80/33 87/35/33 2/37/33 3/73/33
f 59/81/6 96/82/6 6/22/6 73/21/6
f 35/40/34 34/43/34 101/83/34 99/75/34
f 34/43/35 33/45/35 103/84/35 101/83/35
f 33/45/36 32/47/36 105/85/36 103/86/36
f 32/47/37 31/48/37 108/87/37 105/88/37
f 50/89/38 54/90/38 98/91/38 100/92/38 102/93/38 104/94/38 106/95/38 107/96/38 40/97/38 39/98/38
f 85/36/6 47/99/6 72/26/6 1/25/6
f 31/48/6 61/74/6 41/100/6 108/87/6
f 45/101/39 56/102/39 51/103/39 38/104/39
f 84/105/6 36/41/6 97/106/6 53/107/6
f 37/108/40 38/104/40 39/109/40
f 40/110/41 41/111/41 42/112/41
f 43/113/42 44/114/42 45/101/42
f 46/115/43 47/116/43 48/117/43
f 49/118/44 50/119/44 51/103/44
f 52/120/45 53/121/45 54/90/45
f 55/122/46 56/102/46 57/123/46
f 58/9/47 59/124/47 60/125/47
f 72/126/48 47/116/48 46/115/48 71/127/48
f 96/128/49 59/124/49 58/9/49 95/8/49
f 84/105/50 53/107/50 52/19/50 83/18/50
f 108/129/51 41/130/51 40/97/51 107/96/51
f 45/101/52 38/104/52 37/108/52 43/113/52
f 41/111/48 61/131/48 62/132/48 42/112/48
f 61/131/48 63/133/48 64/134/48 62/132/48
f 63/133/48 65/135/48 66/136/48 64/134/48
f 65/135/48 67/137/48 68/138/48 66/136/48
f 67/137/53 69/139/53 70/140/53 68/138/53
f 69/139/54 72/126/54 71/127/54 70/140/54
f 51/103/55 56/102/55 55/11/55 49/20/55
f 59/81/50 73/21/50 74/13/50 60/12/50
f 73/21/56 75/24/56 76/14/56 74/13/56
f 75/69/57 77/70/57 78/15/57 76/14/57
f 77/63/50 79/64/50 80/16/50 78/15/50
f 79/56/50 81/57/50 82/17/50 80/16/50
f 81/49/50 84/50/50 83/18/50 82/17/50
f 56/102/58 45/101/58 44/114/58 57/123/58
f 47/141/49 85/142/49 86/3/49 48/2/49
f 85/142/59 87/143/59 88/4/59 86/3/59
f 87/143/60 89/144/60 90/5/60 88/4/60
f 89/144/61 91/145/61 92/6/61 90/5/61
f 91/145/49 93/146/49 94/7/49 92/6/49
f 93/146/49 96/128/49 95/8/49 94/7/49
f 38/104/62 51/103/62 50/119/62 39/109/62
f 53/121/51 97/147/51 98/91/51 54/90/51
f 97/147/51 99/148/51 100/92/51 98/91/51
f 99/148/63 101/149/63 102/93/63 100/92/63
f 101/149/64 103/150/64 104/94/64 102/93/64
f 103/150/65 105/151/65 106/95/65 104/94/65
f 105/151/66 108/129/66 107/96/66 106/95/66
f 39/152/67 40/110/67 42/112/67 37/153/67
f 48/2/68 44/1/68 43/154/68 46/115/68
f 60/12/69 55/11/69 57/10/69 58/9/69
f 54/90/70 50/89/70 49/20/70 52/19/70
f 37/153/71 42/112/71 62/132/71 64/134/71 66/136/71 68/138/71 70/140/71 71/127/71 46/115/71 43/154/71
