# Blender 4.2.0
# www.blender.org
mtllib floor3.mtl
o Floor3
v -0.714286 1.005414 -0.714286
v -0.428571 0.981105 -0.714286
v -0.142857 1.000000 -0.714286
v 0.142857 1.000000 -0.714286
v 0.428571 1.000000 -0.714286
v 0.714286 1.000000 -0.714286
v -0.714286 1.000000 -0.428571
v -0.428571 0.983084 -0.428571
v -0.142857 0.983084 -0.428571
v 0.142857 1.000000 -0.428571
v 0.428571 1.000000 -0.428571
v 0.714286 1.000000 -0.428571
v -0.714286 1.000000 -0.142857
v -0.428571 1.000000 -0.142857
v -0.142857 1.000000 -0.142857
v 0.142857 0.977051 -0.142857
v 0.428571 1.028252 -0.142857
v 0.714286 1.028363 -0.142857
v -0.714286 1.000000 0.142857
v -0.428571 1.000000 0.142857
v -0.142857 1.000000 0.142857
v 0.142857 1.005303 0.142857
v 0.428571 1.000000 0.142857
v 0.714286 1.000000 0.142857
v -0.714286 1.000000 0.428571
v -0.428571 1.011446 0.428571
v -0.142857 0.952853 0.428571
v 0.142857 1.000000 0.428571
v 0.428571 1.000000 0.428571
v 0.714286 0.912988 0.428571
v -0.714286 1.028363 0.714286
v -0.428571 1.000000 0.714286
v -0.142857 0.952853 0.714286
v 0.142857 1.000000 0.714286
v 0.428571 1.000000 0.714286
v 0.714286 1.028252 0.714286
v -1.000000 -0.980000 0.980000
v -0.980000 -1.000000 0.980000
v -0.980000 -0.980000 1.000000
v -0.980000 0.980000 1.000000
v -0.980000 1.000000 0.980000
v -1.000000 0.980000 0.980000
v -1.000000 -0.980000 -0.980000
v -0.980000 -0.980000 -1.000000
v -0.980000 -1.000000 -0.980000
v -1.000000 0.980000 -0.980000
v -0.980000 1.000000 -0.980000
v -0.980000 0.980000 -1.000000
v 1.000000 -0.980000 0.980000
v 0.980000 -0.980000 1.000000
v 0.980000 -1.000000 0.980000
v 1.000000 0.980000 0.980000
v 0.980000 1.000000 0.980000
v 0.980000 0.980000 1.000000
v 1.000000 -0.980000 -0.980000
v 0.980000 -1.000000 -0.980000
v 0.980000 -0.980000 -1.000000
v 0.980000 0.980000 -1.000000
v 0.980000 1.000000 -0.980000
v 1.000000 0.980000 -0.980000
v -0.980098 1.001976 0.714286
v -1.000000 0.980000 0.714286
v -0.980000 1.000000 0.428571
v -1.000000 0.980000 0.428571
v -0.980000 1.000000 0.142857
v -1.000000 0.980000 0.142857
v -0.980000 1.000000 -0.142857
v -1.000000 0.980000 -0.142857
v -0.980000 1.000000 -0.428571
v -1.000000 0.980000 -0.428571
v -1.000000 0.980000 -0.714286
v -0.980004 1.000379 -0.714286
v 0.980000 1.000000 -0.714286
v 1.000000 0.980000 -0.714286
v 0.980000 1.000000 -0.428571
v 1.000000 0.980000 -0.428571
v 0.980098 1.001976 -0.142857
v 1.000000 0.980000 -0.142857
v 0.980000 1.000000 0.142857
v 1.000000 0.980000 0.142857
v 0.980868 0.994173 0.428571
v 1.000000 0.980000 0.428571
v 1.000000 0.980000 0.714286
v 0.980097 1.001968 0.714286
v -0.714286 1.000379 -0.980004
v -0.714286 0.980000 -1.000000
v -0.428571 0.998680 -0.980044
v -0.428571 0.980000 -1.000000
v -0.142857 1.000000 -0.980000
v -0.142857 0.980000 -1.000000
v 0.142857 1.000000 -0.980000
v 0.142857 0.980000 -1.000000
v 0.428571 1.000000 -0.980000
v 0.428571 0.980000 -1.000000
v 0.714286 0.980000 -1.000000
v 0.714286 1.000000 -0.980000
v 0.714286 1.001968 0.980097
v 0.714286 0.980000 1.000000
v 0.428571 1.000000 0.980000
v 0.428571 0.980000 1.000000
v 0.142857 1.000000 0.980000
v 0.142857 0.980000 1.000000
v -0.142857 0.996744 0.980267
v -0.142857 0.980000 1.000000
v -0.428571 1.000000 0.980000
v -0.428571 0.980000 1.000000
v -0.714286 0.980000 1.000000
v -0.714286 1.001976 0.980098
vn -0.0000 -0.0000 -1.0000
vn 1.0000 -0.0000 -0.0000
vn -0.0000 1.0000 -0.0000
vn -0.0095 0.9999 0.0101
vn 0.0455 0.9987 0.0236
vn 0.1003 0.9753 -0.1967
vn -0.1628 0.9867 -0.0000
vn 0.1819 0.9831 0.0197
vn 0.0296 0.9991 -0.0296
vn -0.1003 0.9726 -0.2096
vn 0.1489 0.9776 0.1489
vn 0.0093 0.9999 0.0093
vn -0.0910 0.9917 0.0910
vn 0.1018 0.9929 0.0620
vn -0.0200 0.9996 -0.0200
vn -0.1489 0.9760 0.1588
vn -0.0002 0.9951 0.0986
vn -0.0801 0.9968 -0.0000
vn 0.0308 0.9983 -0.0494
vn 0.0495 0.9974 0.0530
vn -0.0002 0.9951 -0.0986
vn -0.0892 0.9960 -0.0092
vn 0.0106 0.9999 0.0106
vn -0.0000 0.9983 -0.0591
vn 0.0495 0.9974 -0.0530
vn -0.0296 0.9991 0.0296
vn -0.0330 0.9991 0.0261
vn 0.0720 0.9974 0.0060
vn -0.0495 0.9974 -0.0530
vn -0.0528 0.9974 0.0493
vn -0.0353 0.9988 0.0330
vn -0.0876 0.9928 -0.0820
vn 0.0876 0.9928 -0.0820
vn 0.0530 0.9974 0.0495
vn -0.0000 -0.0000 1.0000
vn -0.0102 0.9999 -0.0102
vn -0.0532 0.9972 0.0532
vn -0.0000 -1.0000 -0.0000
vn 0.0530 0.9972 0.0530
vn -0.5774 -0.5774 0.5774
vn -0.5774 0.5774 0.5774
vn -0.5774 -0.5774 -0.5774
vn -0.5774 0.5774 -0.5774
vn 0.5774 -0.5774 0.5774
vn 0.5774 0.5774 0.5774
vn 0.5774 -0.5774 -0.5774
vn 0.5774 0.5774 -0.5774
vn -0.7105 0.7037 -0.0005
vn -0.0000 0.7071 -0.7071
vn 0.7247 0.6890 0.0027
vn -0.0027 0.6890 0.7248
vn -0.7071 -0.7071 -0.0000
vn -0.7248 0.6890 0.0027
vn -0.7248 0.6890 -0.0025
vn -0.7071 0.7071 -0.0000
vn -0.7105 0.7037 0.0005
vn 0.7071 -0.7071 -0.0000
vn 0.7071 0.7071 -0.0000
vn 0.7248 0.6890 -0.0025
vn 0.7248 0.6890 0.0025
vn 0.6578 0.7532 0.0067
vn 0.6794 0.7338 -0.0091
vn -0.0000 -0.7071 -0.7071
vn -0.0005 0.7037 -0.7105
vn 0.0021 0.7151 -0.6991
vn -0.0016 0.7185 -0.6955
vn -0.0000 -0.7071 0.7071
vn 0.0027 0.6890 0.7247
vn -0.0025 0.6890 0.7247
vn -0.0000 0.7071 0.7071
vn -0.0039 0.7342 0.6789
vn 0.0039 0.7342 0.6789
vn 0.0025 0.6890 0.7248
vn -0.7071 -0.0000 0.7071
vn -0.7071 -0.0000 -0.7071
vn 0.7071 -0.0000 -0.7071
vn 0.7071 -0.0000 0.7071
vn -1.0000 -0.0000 -0.0000
vt 0.377500 0.252500
vt 0.622500 0.252500
vt 0.622500 0.285714
vt 0.622500 0.321429
vt 0.622500 0.357143
vt 0.622500 0.392857
vt 0.622500 0.428571
vt 0.622500 0.464286
vt 0.622500 0.497500
vt 0.377500 0.497500
vt 0.377500 0.502500
vt 0.622500 0.502500
vt 0.622500 0.535714
vt 0.622500 0.571428
vt 0.622500 0.607143
vt 0.622500 0.642857
vt 0.622500 0.678571
vt 0.622500 0.714286
vt 0.622500 0.747500
vt 0.377500 0.747500
vt 0.627500 0.535714
vt 0.660714 0.535714
vt 0.660714 0.571429
vt 0.627500 0.571429
vt 0.839286 0.535714
vt 0.872500 0.535714
vt 0.872500 0.571428
vt 0.839286 0.571429
vt 0.872500 0.571429
vt 0.872500 0.607143
vt 0.839286 0.607143
vt 0.872500 0.642857
vt 0.839286 0.642857
vt 0.872500 0.678571
vt 0.839286 0.678571
vt 0.803571 0.502495
vt 0.839286 0.502500
vt 0.803571 0.535714
vt 0.660714 0.678571
vt 0.696429 0.678571
vt 0.696429 0.714286
vt 0.660714 0.714286
vt 0.732143 0.678571
vt 0.732143 0.714286
vt 0.767857 0.678571
vt 0.767857 0.714286
vt 0.803571 0.678571
vt 0.803571 0.714286
vt 0.839286 0.714286
vt 0.627392 0.678571
vt 0.627488 0.714286
vt 0.660714 0.642857
vt 0.696429 0.642857
vt 0.732143 0.642857
vt 0.767857 0.642857
vt 0.803571 0.642857
vt 0.627500 0.642857
vt 0.660714 0.607143
vt 0.696429 0.607143
vt 0.732143 0.607143
vt 0.767857 0.607143
vt 0.803571 0.607143
vt 0.627488 0.607143
vt 0.696429 0.571429
vt 0.732143 0.571429
vt 0.767857 0.571429
vt 0.803571 0.571429
vt 0.696429 0.535714
vt 0.732143 0.535714
vt 0.767857 0.535714
vt 0.872512 0.714286
vt 0.696429 0.747500
vt 0.660714 0.747512
vt 0.660714 0.502500
vt 0.696429 0.502500
vt 0.732143 0.502500
vt 0.767857 0.502500
vt 0.627500 0.502500
vt 0.660714 0.502500
vt 0.627500 0.535714
vt 0.732143 0.747500
vt 0.696429 0.747500
vt 0.767857 0.747533
vt 0.803571 0.747500
vt 0.767857 0.747533
vt 0.839286 0.747512
vt 0.377500 0.752500
vt 0.622500 0.752500
vt 0.622500 0.785714
vt 0.622500 0.821429
vt 0.622500 0.857143
vt 0.622500 0.892857
vt 0.622500 0.928571
vt 0.622500 0.964286
vt 0.622500 0.997500
vt 0.377500 0.997500
vt 0.839286 0.502500
vt 0.872500 0.502500
vt 0.872500 0.535714
vt 0.872512 0.714286
vt 0.872502 0.747502
vt 0.127500 0.502500
vt 0.372500 0.502500
vt 0.372500 0.747500
vt 0.127500 0.747500
vt 0.627488 0.714286
vt 0.660714 0.747512
vt 0.627498 0.747502
vt 0.125000 0.747500
vt 0.127500 0.750000
vt 0.622500 0.000000
vt 0.625000 0.002500
vt 0.622500 0.002500
vt 0.125000 0.502500
vt 0.127500 0.500000
vt 0.622500 0.247500
vt 0.625000 0.247500
vt 0.622500 0.250000
vt 0.375000 0.747500
vt 0.372500 0.750000
vt 0.622500 0.750000
vt 0.625000 0.752500
vt 0.375000 0.502500
vt 0.372500 0.500000
vt 0.625000 0.497500
vt 0.622500 0.500000
vt 0.625000 0.214286
vt 0.622500 0.214286
vt 0.625000 0.464286
vt 0.625000 0.964286
vt 0.625000 0.997500
vt 0.625000 0.035714
vt 0.622500 0.035714
vt 0.625000 0.071429
vt 0.622500 0.071429
vt 0.625000 0.107143
vt 0.622500 0.107143
vt 0.625000 0.142857
vt 0.622500 0.142857
vt 0.625000 0.178571
vt 0.622500 0.178571
vt 0.625000 0.252500
vt 0.625000 0.285714
vt 0.625000 0.321429
vt 0.625000 0.357143
vt 0.625000 0.392857
vt 0.625000 0.428571
vt 0.625000 0.785714
vt 0.625000 0.821429
vt 0.625000 0.857143
vt 0.625000 0.892857
vt 0.625000 0.928571
vt 0.377500 0.000000
vt 0.377500 0.002500
vt 0.377500 0.247500
s 0
f 44/1/1 48/2/1 86/3/1 88/4/1 90/5/1 92/6/1 94/7/1 95/8/1 58/9/1 57/10/1
f 55/11/2 60/12/2 74/13/2 76/14/2 78/15/2 80/16/2 82/17/2 83/18/2 52/19/2 49/20/2
f 73/21/3 6/22/3 12/23/3 75/24/3
f 1/25/4 72/26/4 69/27/4 7/28/4
f 7/28/3 69/29/3 67/30/3 13/31/3
f 13/31/3 67/30/3 65/32/3 19/33/3
f 19/33/3 65/32/3 63/34/3 25/35/3
f 87/36/5 85/37/5 1/25/5 2/38/5
f 30/39/6 29/40/6 35/41/6 36/42/6
f 29/40/3 28/43/3 34/44/3 35/41/3
f 28/43/7 27/45/7 33/46/7 34/44/7
f 27/45/8 26/47/8 32/48/8 33/46/8
f 26/47/9 25/35/9 31/49/9 32/48/9
f 81/50/10 30/39/10 36/42/10 84/51/10
f 24/52/11 23/53/11 29/40/11 30/39/11
f 23/53/12 22/54/12 28/43/12 29/40/12
f 22/54/13 21/55/13 27/45/13 28/43/13
f 21/55/14 20/56/14 26/47/14 27/45/14
f 20/56/15 19/33/15 25/35/15 26/47/15
f 79/57/16 24/52/16 30/39/16 81/50/16
f 18/58/17 17/59/17 23/53/17 24/52/17
f 17/59/18 16/60/18 22/54/18 23/53/18
f 16/60/19 15/61/19 21/55/19 22/54/19
f 15/61/3 14/62/3 20/56/3 21/55/3
f 14/62/3 13/31/3 19/33/3 20/56/3
f 77/63/20 18/58/20 24/52/20 79/57/20
f 12/23/21 11/64/21 17/59/21 18/58/21
f 11/64/22 10/65/22 16/60/22 17/59/22
f 10/65/23 9/66/23 15/61/23 16/60/23
f 9/66/24 8/67/24 14/62/24 15/61/24
f 8/67/9 7/28/9 13/31/9 14/62/9
f 75/24/25 12/23/25 18/58/25 77/63/25
f 6/22/3 5/68/3 11/64/3 12/23/3
f 5/68/3 4/69/3 10/65/3 11/64/3
f 4/69/26 3/70/26 9/66/26 10/65/26
f 3/70/27 2/38/27 8/67/27 9/66/27
f 2/38/28 1/25/28 7/28/28 8/67/28
f 25/35/29 63/34/29 61/71/29 31/49/29
f 36/42/30 35/41/30 99/72/30 97/73/30
f 96/74/3 93/75/3 5/68/3 6/22/3
f 93/75/3 91/76/3 4/69/3 5/68/3
f 91/76/3 89/77/3 3/70/3 4/69/3
f 89/77/31 87/36/31 2/38/31 3/70/31
f 59/78/3 96/79/3 6/22/3 73/80/3
f 35/41/3 34/44/3 101/81/3 99/82/3
f 34/44/32 33/46/32 103/83/32 101/81/32
f 33/46/33 32/48/33 105/84/33 103/85/33
f 32/48/34 31/49/34 108/86/34 105/84/34
f 50/87/35 54/88/35 98/89/35 100/90/35 102/91/35 104/92/35 106/93/35 107/94/35 40/95/35 39/96/35
f 85/97/36 47/98/36 72/99/36 1/25/36
f 31/49/37 61/100/37 41/101/37 108/86/37
f 45/102/38 56/103/38 51/104/38 38/105/38
f 84/106/39 36/42/39 97/107/39 53/108/39
f 37/109/40 38/105/40 39/110/40
f 40/111/41 41/112/41 42/113/41
f 43/114/42 44/115/42 45/102/42
f 46/116/43 47/117/43 48/118/43
f 49/119/44 50/120/44 51/104/44
f 52/121/45 53/122/45 54/88/45
f 55/123/46 56/103/46 57/124/46
f 58/9/47 59/125/47 60/126/47
f 72/127/48 47/117/48 46/116/48 71/128/48
f 96/129/49 59/125/49 58/9/49 95/8/49
f 84/106/50 53/108/50 52/19/50 83/18/50
f 108/130/51 41/131/51 40/95/51 107/94/51
f 45/102/52 38/105/52 37/109/52 43/114/52
f 41/112/53 61/132/53 62/133/53 42/113/53
f 61/132/54 63/134/54 64/135/54 62/133/54
f 63/134/55 65/136/55 66/137/55 64/135/55
f 65/136/55 67/138/55 68/139/55 66/137/55
f 67/138/55 69/140/55 70/141/55 68/139/55
f 69/140/56 72/127/56 71/128/56 70/141/56
f 51/104/57 56/103/57 55/11/57 49/20/57
f 59/78/58 73/80/58 74/13/58 60/12/58
f 73/21/58 75/24/58 76/14/58 74/13/58
f 75/24/59 77/63/59 78/15/59 76/14/59
f 77/63/60 79/57/60 80/16/60 78/15/60
f 79/57/61 81/50/61 82/17/61 80/16/61
f 81/50/62 84/51/62 83/18/62 82/17/62
f 56/103/63 45/102/63 44/115/63 57/124/63
f 47/142/64 85/143/64 86/3/64 48/2/64
f 85/143/65 87/144/65 88/4/65 86/3/65
f 87/144/66 89/145/66 90/5/66 88/4/66
f 89/145/49 91/146/49 92/6/49 90/5/49
f 91/146/49 93/147/49 94/7/49 92/6/49
f 93/147/49 96/129/49 95/8/49 94/7/49
f 38/105/67 51/104/67 50/120/67 39/110/67
f 53/122/68 97/148/68 98/89/68 54/88/68
f 97/148/69 99/149/69 100/90/69 98/89/69
f 99/149/70 101/150/70 102/91/70 100/90/70
f 101/150/71 103/151/71 104/92/71 102/91/71
f 103/151/72 105/152/72 106/93/72 104/92/72
f 105/152/73 108/130/73 107/94/73 106/93/73
f 39/153/74 40/111/74 42/113/74 37/154/74
f 48/2/75 44/1/75 43/155/75 46/116/75
f 60/12/76 55/11/76 57/10/76 58/9/76
f 54/88/77 50/87/77 49/20/77 52/19/77
f 37/154/78 42/113/78 62/133/78 64/135/78 66/137/78 68/139/78 70/141/78 71/128/78 46/116/78 43/155/78
