# Blender 4.2.0
# www.blender.org
mtllib hammer.mtl
o Hammer
v -0.031172 0.000000 0.031172
v -0.031172 0.020000 0.051172
v -0.051172 0.020000 0.031172
v -0.031172 0.706254 0.051172
v -0.031172 0.726254 0.031172
v -0.051172 0.706254 0.031172
v -0.031172 0.000000 -0.031172
v -0.051172 0.020000 -0.031172
v -0.031172 0.020000 -0.051172
v -0.031172 0.726254 -0.031172
v -0.031172 0.706254 -0.051172
v -0.051172 0.706254 -0.031172
v 0.031172 0.000000 0.031172
v 0.051172 0.020000 0.031172
v 0.031172 0.020000 0.051172
v 0.031172 0.726254 0.031172
v 0.031172 0.706254 0.051172
v 0.051172 0.706254 0.031172
v 0.031172 0.000000 -0.031172
v 0.031172 0.020000 -0.051172
v 0.051172 0.020000 -0.031172
v 0.031172 0.726254 -0.031172
v 0.051172 0.706254 -0.031172
v 0.031172 0.706254 -0.051172
v -0.380402 0.740153 0.173171
v -0.400402 0.751869 0.153171
v -0.386260 0.717727 0.153171
v -0.347842 0.699309 0.153171
v -0.359557 0.719309 0.173171
v -0.381984 0.713451 0.153171
v -0.359557 1.025652 0.173171
v -0.347842 1.045652 0.153171
v -0.381984 1.031510 0.153171
v -0.380402 1.004808 0.173171
v -0.386260 1.027234 0.153171
v -0.400402 0.993092 0.153171
v -0.359557 0.719309 -0.173171
v -0.347842 0.699309 -0.153171
v -0.381984 0.713451 -0.153171
v -0.380402 0.740153 -0.173171
v -0.386260 0.717727 -0.153171
v -0.400402 0.751869 -0.153171
v -0.380402 1.004808 -0.173171
v -0.400402 0.993092 -0.153171
v -0.386260 1.027234 -0.153171
v -0.347842 1.045652 -0.153171
v -0.359557 1.025652 -0.173171
v -0.381984 1.031510 -0.153171
v 0.359557 0.719309 0.173171
v 0.347842 0.699309 0.153171
v 0.381984 0.713451 0.153171
v 0.380402 0.740153 0.173171
v 0.386260 0.717727 0.153171
v 0.400402 0.751869 0.153171
v 0.380402 1.004808 0.173171
v 0.400402 0.993092 0.153171
v 0.386260 1.027234 0.153171
v 0.347842 1.045652 0.153171
v 0.359557 1.025652 0.173171
v 0.381984 1.031510 0.153171
v 0.380402 0.740153 -0.173171
v 0.400402 0.751869 -0.153171
v 0.386260 0.717727 -0.153171
v 0.347842 0.699309 -0.153171
v 0.359557 0.719309 -0.173171
v 0.381984 0.713451 -0.153171
v 0.359557 1.025652 -0.173171
v 0.347842 1.045652 -0.153171
v 0.381984 1.031510 -0.153171
v 0.380402 1.004808 -0.173171
v 0.386260 1.027234 -0.153171
v 0.400402 0.993092 -0.153171
vn -0.0000 -0.0000 1.0000
vn 1.0000 -0.0000 -0.0000
vn -0.7071 -0.7071 -0.0000
vn -0.0000 1.0000 -0.0000
vn -1.0000 -0.0000 -0.0000
vn -0.0000 -0.0000 -1.0000
vn -0.0000 -1.0000 -0.0000
vn 0.7071 0.7071 -0.0000
vn 0.7071 -0.7071 -0.0000
vn -0.7071 0.7071 -0.0000
vn -0.5774 -0.5774 0.5774
vn -0.5773 0.5774 0.5774
vn -0.5774 -0.5774 -0.5774
vn -0.5773 0.5774 -0.5774
vn 0.5774 -0.5774 0.5774
vn 0.5773 0.5774 0.5774
vn 0.5774 -0.5774 -0.5774
vn 0.5773 0.5774 -0.5774
vn -0.7570 -0.3135 0.5733
vn -0.3136 -0.7570 0.5733
vn -0.3136 0.7570 0.5733
vn -0.7570 0.3135 0.5733
vn -0.3136 -0.7570 -0.5733
vn -0.7570 -0.3135 -0.5733
vn -0.7570 0.3135 -0.5733
vn -0.3136 0.7570 -0.5733
vn 0.3136 -0.7570 0.5733
vn 0.7570 -0.3135 0.5733
vn 0.7570 0.3135 0.5733
vn 0.3136 0.7570 0.5733
vn 0.7570 -0.3135 -0.5733
vn 0.3136 -0.7570 -0.5733
vn 0.3136 0.7570 -0.5733
vn 0.7570 0.3135 -0.5733
vn -0.7071 -0.0000 0.7071
vn -0.7071 -0.0000 -0.7071
vn -0.0000 -0.7071 -0.7071
vn -0.0000 0.7071 -0.7071
vn 0.7071 -0.0000 -0.7071
vn 0.7071 -0.0000 0.7071
vn -0.0000 -0.7071 0.7071
vn -0.0000 0.7071 0.7071
vn -0.5000 -0.5000 -0.7071
vn -0.3827 -0.9239 -0.0000
vn -0.5000 -0.5000 0.7071
vn -0.9239 -0.3827 -0.0000
vn -0.5000 0.5000 0.7071
vn -0.3827 0.9239 -0.0000
vn -0.5000 0.5000 -0.7071
vn -0.9239 0.3827 -0.0000
vn 0.5000 -0.5000 0.7071
vn 0.3827 -0.9239 -0.0000
vn 0.5000 -0.5000 -0.7071
vn 0.9239 -0.3827 -0.0000
vn 0.5000 0.5000 -0.7071
vn 0.3827 0.9239 -0.0000
vn 0.5000 0.5000 0.7071
vn 0.9239 0.3827 -0.0000
vt 0.381885 0.798855
vt 0.618115 0.798855
vt 0.618115 0.951145
vt 0.381885 0.951145
vt 0.381885 0.548855
vt 0.618115 0.548855
vt 0.618115 0.701145
vt 0.381885 0.701145
vt 0.130750 0.514437
vt 0.130750 0.735563
vt 0.129415 0.735563
vt 0.129415 0.514437
vt 0.673855 0.548855
vt 0.826145 0.548855
vt 0.826145 0.701145
vt 0.673855 0.701145
vt 0.381885 0.048855
vt 0.618115 0.048855
vt 0.618115 0.201145
vt 0.381885 0.201145
vt 0.381885 0.298855
vt 0.618115 0.298855
vt 0.618115 0.451145
vt 0.381885 0.451145
vt 0.141409 0.514437
vt 0.358591 0.514437
vt 0.358591 0.735563
vt 0.141409 0.735564
vt 0.620542 0.514437
vt 0.620542 0.735563
vt 0.616121 0.735563
vt 0.616121 0.514437
vt 0.389437 0.262751
vt 0.404483 0.256244
vt 0.595517 0.256244
vt 0.610563 0.262751
vt 0.610563 0.487249
vt 0.595518 0.493756
vt 0.404483 0.493756
vt 0.389437 0.487249
vt 0.389437 0.762751
vt 0.404483 0.756244
vt 0.595517 0.756244
vt 0.610563 0.762751
vt 0.610563 0.987249
vt 0.595518 0.993756
vt 0.404483 0.993756
vt 0.389437 0.987249
vt 0.379458 0.735563
vt 0.379458 0.514437
vt 0.383880 0.514437
vt 0.383880 0.735563
vt 0.412939 0.014437
vt 0.587061 0.014437
vt 0.587061 0.235563
vt 0.412939 0.235563
vt 0.641409 0.514437
vt 0.858592 0.514437
vt 0.858592 0.735563
vt 0.641409 0.735564
vt 0.412939 0.514437
vt 0.587061 0.514437
vt 0.587061 0.735563
vt 0.412939 0.735563
vt 0.614792 0.014437
vt 0.614792 0.235563
vt 0.611706 0.235563
vt 0.611706 0.014437
vt 0.173855 0.701145
vt 0.173855 0.750000
vt 0.125000 0.701145
vt 0.618115 0.000000
vt 0.625000 0.048855
vt 0.173855 0.548855
vt 0.125000 0.548855
vt 0.173855 0.500000
vt 0.625000 0.201145
vt 0.618115 0.250000
vt 0.326145 0.701145
vt 0.375000 0.701145
vt 0.326145 0.750000
vt 0.625000 0.798855
vt 0.618115 0.750000
vt 0.326145 0.548855
vt 0.326145 0.500000
vt 0.375000 0.548855
vt 0.625000 0.451145
vt 0.618115 0.500000
vt 0.126829 0.750000
vt 0.125000 0.735563
vt 0.137751 0.750000
vt 0.135165 0.735563
vt 0.625000 0.983591
vt 0.614792 0.994250
vt 0.595517 0.000000
vt 0.601497 0.014437
vt 0.137751 0.500000
vt 0.135165 0.514437
vt 0.126829 0.500000
vt 0.125000 0.514437
vt 0.595518 0.250000
vt 0.601497 0.235563
vt 0.625000 0.266409
vt 0.614792 0.255750
vt 0.362249 0.750000
vt 0.364835 0.735563
vt 0.392446 0.750000
vt 0.398503 0.735563
vt 0.587061 0.750000
vt 0.611706 0.754415
vt 0.625000 0.766409
vt 0.614792 0.755750
vt 0.392446 0.500000
vt 0.398503 0.514437
vt 0.362249 0.500000
vt 0.364835 0.514437
vt 0.625000 0.483591
vt 0.614792 0.494250
vt 0.611706 0.495585
vt 0.587061 0.500000
vt 0.381885 0.000000
vt 0.625000 0.048855
vt 0.625000 0.298855
vt 0.326145 0.750000
vt 0.173855 0.750000
vt 0.625000 0.951145
vt 0.133336 0.500000
vt 0.133336 0.750000
vt 0.611706 0.995585
vt 0.625000 0.014437
vt 0.625000 0.235563
vt 0.611706 0.254415
vt 0.370892 0.750000
vt 0.370892 0.500000
vt 0.404483 0.000000
vt 0.625000 0.266409
s 0
f 15/1/1 17/2/1 4/3/1 2/4/1
f 21/5/2 23/6/2 18/7/2 14/8/2
f 39/9/3 30/10/3 27/11/3 41/12/3
f 22/13/4 10/14/4 5/15/4 16/16/4
f 3/17/5 6/18/5 12/19/5 8/20/5
f 9/21/6 11/22/6 24/23/6 20/24/6
f 38/25/7 64/26/7 50/27/7 28/28/7
f 69/29/8 60/30/8 57/31/8 71/32/8
f 37/33/6 40/34/6 43/35/6 47/36/6 67/37/6 70/38/6 61/39/6 65/40/6
f 49/41/1 52/42/1 55/43/1 59/44/1 31/45/1 34/46/1 25/47/1 29/48/1
f 51/49/9 66/50/9 63/51/9 53/52/9
f 26/53/5 36/54/5 44/55/5 42/56/5
f 68/57/4 46/58/4 32/59/4 58/60/4
f 62/61/2 72/62/2 56/63/2 54/64/2
f 33/65/10 48/66/10 45/67/10 35/68/10
f 1/69/11 2/70/11 3/71/11
f 4/72/12 5/73/12 6/18/12
f 7/74/13 8/75/13 9/76/13
f 10/77/14 11/78/14 12/19/14
f 13/79/15 14/80/15 15/81/15
f 16/82/16 17/2/16 18/83/16
f 19/84/17 20/85/17 21/86/17
f 22/87/18 23/88/18 24/23/18
f 25/89/19 26/90/19 27/11/19
f 28/28/20 29/91/20 30/92/20
f 31/45/21 32/93/21 33/94/21
f 34/95/22 35/96/22 36/54/22
f 37/97/23 38/25/23 39/98/23
f 40/99/24 41/12/24 42/100/24
f 43/101/25 44/55/25 45/102/25
f 46/103/26 47/36/26 48/104/26
f 49/105/27 50/27/27 51/106/27
f 52/107/28 53/52/28 54/108/28
f 55/43/29 56/109/29 57/110/29
f 58/111/30 59/44/30 60/112/30
f 61/113/31 62/114/31 63/51/31
f 64/26/32 65/115/32 66/116/32
f 67/37/33 68/117/33 69/118/33
f 70/38/34 71/119/34 72/120/34
f 7/74/3 1/69/3 3/71/3 8/75/3
f 2/121/35 4/72/35 6/18/35 3/17/35
f 5/122/10 10/77/10 12/19/10 6/18/10
f 11/22/36 9/21/36 8/20/36 12/19/36
f 19/84/37 7/74/37 9/76/37 20/85/37
f 10/123/38 22/87/38 24/23/38 11/22/38
f 23/6/39 21/5/39 20/24/39 24/23/39
f 13/79/9 19/84/9 21/5/9 14/8/9
f 22/13/8 16/16/8 18/7/8 23/6/8
f 17/2/40 15/1/40 14/8/40 18/7/40
f 1/69/41 13/79/41 15/124/41 2/125/41
f 16/82/42 5/126/42 4/3/42 17/2/42
f 40/99/43 37/127/43 39/9/43 41/12/43
f 38/25/44 28/28/44 30/10/44 39/9/44
f 29/128/45 25/89/45 27/11/45 30/10/45
f 26/90/46 42/100/46 41/12/46 27/11/46
f 34/46/47 31/45/47 33/94/47 35/129/47
f 32/130/48 46/131/48 48/66/48 33/65/48
f 47/36/49 43/35/49 45/132/49 48/104/49
f 44/55/50 36/54/50 35/68/50 45/67/50
f 52/107/51 49/133/51 51/49/51 53/52/51
f 50/27/52 64/26/52 66/50/52 51/49/52
f 65/134/53 61/113/53 63/51/53 66/50/53
f 62/61/54 54/64/54 53/52/54 63/51/54
f 70/38/55 67/37/55 69/118/55 71/119/55
f 68/57/56 58/60/56 60/30/56 69/29/56
f 59/44/57 55/43/57 57/110/57 60/112/57
f 56/63/58 72/62/58 71/32/58 57/31/58
f 37/97/37 65/115/37 64/26/37 38/25/37
f 49/105/41 29/91/41 28/28/41 50/27/41
f 25/135/35 34/95/35 36/54/35 26/53/35
f 43/35/36 40/34/36 42/56/36 44/55/36
f 54/64/40 56/63/40 55/43/40 52/42/40
f 58/111/42 32/93/42 31/45/42 59/44/42
f 67/37/38 47/36/38 46/136/38 68/117/38
f 72/62/39 62/61/39 61/39/39 70/38/39
f 7/74/7 19/84/7 13/79/7 1/69/7
