# Blender 4.2.0
# www.blender.org
mtllib sign1.mtl
o Sign_1
v -0.658571 2.356186 0.054096
v -0.658571 2.356186 0.165142
v -0.051403 0.000000 0.051403
v -0.051403 0.001407 0.052810
v -0.052810 0.001407 0.051403
v -0.051403 2.046407 0.052810
v -0.051403 2.047814 0.051403
v -0.052810 2.046407 0.051403
v -0.051403 0.000000 -0.051403
v -0.052810 0.001407 -0.051403
v -0.051403 0.001407 -0.052810
v -0.051403 2.047814 -0.051403
v -0.051403 2.046407 -0.052810
v -0.052810 2.046407 -0.051403
v 0.051403 0.000000 0.051403
v 0.052810 0.001407 0.051403
v 0.051403 0.001407 0.052810
v 0.051403 2.047814 0.051403
v 0.051403 2.046407 0.052810
v 0.052810 2.046407 0.051403
v 0.051403 0.000000 -0.051403
v 0.051403 0.001407 -0.052810
v 0.052810 0.001407 -0.051403
v 0.051403 2.047814 -0.051403
v 0.052810 2.046407 -0.051403
v 0.051403 2.046407 -0.052810
v -1.016645 1.637648 0.163735
v -1.016577 1.639053 0.165142
v -1.017982 1.639121 0.163735
v -0.978254 2.425638 0.165142
v -0.978175 2.427274 0.163735
v -0.979648 2.425937 0.163735
v -1.016645 1.637648 0.055503
v -1.017982 1.639121 0.055503
v -1.016577 1.639053 0.054096
v -0.978175 2.427274 0.055503
v -0.978254 2.425638 0.054096
v -0.979648 2.425937 0.055503
v 0.978175 1.540457 0.163735
v 0.979648 1.541796 0.163735
v 0.978243 1.541862 0.165142
v 0.978175 1.540457 0.055503
v 0.978243 1.541862 0.054096
v 0.979648 1.541796 0.055503
v 1.011616 2.226851 0.165142
v 1.012981 2.225959 0.163735
v 1.012104 2.228406 0.163735
v 0.913993 2.335087 0.163735
v 0.914909 2.333463 0.165142
v 0.916343 2.333977 0.163735
v 0.914909 2.333463 0.054096
v 0.913993 2.335087 0.055503
v 0.916343 2.333977 0.055503
v 1.011616 2.226851 0.054096
v 1.012104 2.228406 0.055503
v 1.012981 2.225959 0.055503
v -0.644871 1.620943 0.054096
v -0.644844 1.619533 0.055503
v -0.644845 1.619533 0.163735
v -0.644871 1.620943 0.165142
v -0.713438 2.412727 0.054096
v -0.715118 2.414458 0.055503
v -0.604095 2.409049 0.055503
v -0.605672 2.407518 0.054096
v -0.660835 2.384156 0.055503
v -0.658329 2.384058 0.055503
v -0.659575 2.382641 0.054096
v -0.605672 2.407518 0.165142
v -0.604095 2.409049 0.163735
v -0.715118 2.414458 0.163735
v -0.713438 2.412727 0.165142
v -0.658329 2.384058 0.163735
v -0.660835 2.384156 0.163735
v -0.659575 2.382641 0.165142
v 0.339125 2.361509 0.054096
v 0.339437 2.363080 0.055503
v 0.339437 2.363080 0.163735
v 0.339125 2.361509 0.165142
v 0.233534 1.576788 0.054096
v 0.233531 1.575380 0.055503
v 0.231825 1.576820 0.055503
v 0.156040 1.583283 0.054096
v 0.157011 1.583140 0.055503
v 0.155032 1.581922 0.055503
v 0.206567 1.692099 0.055503
v 0.205692 1.692188 0.055503
v 0.207080 1.697571 0.054096
v 0.156040 1.583283 0.165142
v 0.155032 1.581922 0.163735
v 0.157011 1.583140 0.163735
v 0.233534 1.576788 0.165142
v 0.231825 1.576820 0.163735
v 0.233531 1.575380 0.163735
v 0.205692 1.692188 0.163735
v 0.206566 1.692099 0.163735
v 0.207080 1.697571 0.165142
v -0.024217 1.994986 -0.051537
v -0.024614 1.996568 -0.052944
v -0.025632 1.994176 -0.052944
v -0.024398 1.976107 -0.051537
v -0.025797 1.976945 -0.052944
v -0.024826 1.974534 -0.052944
v -0.012758 1.962233 -0.052944
v -0.010366 1.961215 -0.052944
v -0.011177 1.962630 -0.051537
v 0.006865 1.961050 -0.052944
v 0.009276 1.962022 -0.052944
v 0.007702 1.962449 -0.051537
v 0.021180 1.975671 -0.051537
v 0.021577 1.974089 -0.052944
v 0.022595 1.976481 -0.052944
v 0.021361 1.994550 -0.051537
v 0.022760 1.993712 -0.052944
v 0.021788 1.996123 -0.052944
v 0.009720 2.008424 -0.052944
v 0.007328 2.009442 -0.052944
v 0.008139 2.008027 -0.051537
v -0.009902 2.009607 -0.052944
v -0.012314 2.008635 -0.052944
v -0.010740 2.008208 -0.051537
v -0.025797 1.976945 -0.060093
v -0.024826 1.974534 -0.060093
v -0.024614 1.996568 -0.060093
v -0.025632 1.994176 -0.060093
v -0.012758 1.962233 -0.060093
v -0.010366 1.961215 -0.060093
v 0.006865 1.961050 -0.060093
v 0.009276 1.962022 -0.060093
v 0.021577 1.974089 -0.060093
v 0.022595 1.976481 -0.060093
v 0.022760 1.993712 -0.060093
v 0.021788 1.996123 -0.060093
v 0.009721 2.008424 -0.060093
v 0.007328 2.009442 -0.060093
v -0.009902 2.009607 -0.060093
v -0.012314 2.008635 -0.060093
v 0.022595 1.976481 -0.061500
v 0.021577 1.974089 -0.061500
v 0.021180 1.975671 -0.062907
v 0.006865 1.961050 -0.061500
v 0.007702 1.962449 -0.062907
v 0.009276 1.962022 -0.061500
v -0.025797 1.976945 -0.061500
v -0.024398 1.976107 -0.062907
v -0.024826 1.974534 -0.061500
v -0.010366 1.961215 -0.061500
v -0.012758 1.962233 -0.061500
v -0.011177 1.962630 -0.062907
v -0.024284 1.988015 -0.051537
v -0.025691 1.988029 -0.052944
v -0.025738 1.983092 -0.052944
v -0.024332 1.983078 -0.051537
v -0.024318 1.984485 -0.060093
v -0.024332 1.983078 -0.061500
v -0.025752 1.981685 -0.058687
v -0.024298 1.986608 -0.060093
v -0.025678 1.989435 -0.058687
v -0.024284 1.988015 -0.061500
v 0.021247 1.982642 -0.051537
v 0.022653 1.982628 -0.052944
v 0.022701 1.987565 -0.052944
v 0.021294 1.987578 -0.051537
v 0.021280 1.986172 -0.060093
v 0.021294 1.987578 -0.061500
v 0.022714 1.988972 -0.058687
v 0.021260 1.984048 -0.060093
v 0.022640 1.981221 -0.058687
v 0.021247 1.982642 -0.061500
v 0.007328 2.009442 -0.061500
v 0.009721 2.008424 -0.061500
v 0.008139 2.008027 -0.062907
v 0.022760 1.993712 -0.061500
v 0.021361 1.994550 -0.062907
v 0.021788 1.996123 -0.061500
v -0.009902 2.009607 -0.061500
v -0.010740 2.008208 -0.062907
v -0.012314 2.008635 -0.061500
v -0.024614 1.996568 -0.061500
v -0.024217 1.994986 -0.062907
v -0.025632 1.994176 -0.061500
v 0.022714 1.988972 -0.061500
v 0.021294 1.987578 -0.061500
v 0.021307 1.988985 -0.062907
v -0.024284 1.988015 -0.061500
v -0.025678 1.989435 -0.061500
v -0.024271 1.989422 -0.062907
v -0.024332 1.983078 -0.061500
v -0.024345 1.981671 -0.062907
v -0.025752 1.981685 -0.061500
v 0.022640 1.981221 -0.061500
v 0.021233 1.981235 -0.062907
v 0.021247 1.982642 -0.061500
vn -0.0000 -0.0000 1.0000
vn 1.0000 -0.0000 -0.0000
vn -0.0487 -0.9988 -0.0000
vn -0.0000 1.0000 -0.0000
vn -1.0000 -0.0000 -0.0000
vn -0.0000 -0.0000 -1.0000
vn 0.0487 0.9988 -0.0000
vn -0.0470 -0.9989 -0.0000
vn -0.9988 0.0487 -0.0000
vn -0.0468 -0.9989 -0.0000
vn 0.9988 -0.0487 -0.0000
vn 0.4874 0.8732 -0.0000
vn -0.9768 -0.2140 -0.0000
vn -0.4185 0.9082 -0.0000
vn 0.7407 0.6719 -0.0000
vn 0.9131 -0.4076 -0.0000
vn -0.0096 -1.0000 -0.0000
vn 1.0000 -0.0096 -0.0000
vn -1.0000 0.0096 -0.0000
vn -0.7138 -0.7003 -0.0000
vn 0.7003 -0.7138 -0.0000
vn 0.0096 1.0000 -0.0000
vn 0.7138 0.7003 -0.0000
vn -0.7003 0.7138 -0.0000
vn 0.7139 0.7003 -0.0000
vn -0.5774 -0.5773 0.5773
vn -0.5774 0.5773 0.5773
vn -0.5774 -0.5773 -0.5773
vn -0.5774 0.5773 -0.5773
vn 0.5774 -0.5773 0.5773
vn 0.5774 0.5773 0.5773
vn 0.5774 -0.5773 -0.5773
vn 0.5774 0.5773 -0.5773
vn -0.6047 -0.5487 0.5773
vn -0.5187 0.5719 0.6355
vn -0.6048 -0.5486 -0.5773
vn -0.5187 0.5719 -0.6355
vn 0.5494 -0.6044 0.5769
vn 0.5494 -0.6044 -0.5769
vn 0.7714 0.2763 0.5733
vn 0.3392 0.7181 0.6077
vn 0.3392 0.7181 -0.6077
vn 0.7713 0.2763 -0.5733
vn 0.0269 0.6921 -0.7213
vn 0.0269 0.6921 0.7213
vn -0.5119 -0.6066 -0.6082
vn 0.4784 -0.7771 -0.4090
vn -0.0253 -0.2467 -0.9688
vn 0.4784 -0.7771 0.4089
vn -0.5119 -0.6066 0.6082
vn -0.0253 -0.2467 0.9688
vn -0.7539 0.3208 0.5733
vn -0.7600 -0.3063 0.5733
vn -0.3208 -0.7539 0.5733
vn 0.3063 -0.7599 0.5733
vn 0.7539 -0.3208 0.5733
vn 0.7600 0.3063 0.5733
vn 0.3207 0.7540 0.5733
vn -0.3063 0.7599 0.5733
vn 0.7539 -0.3208 -0.5733
vn 0.3063 -0.7599 -0.5733
vn -0.7600 -0.3063 -0.5733
vn -0.3208 -0.7539 -0.5733
vn -0.9016 0.3102 -0.3016
vn -0.9074 -0.2928 -0.3015
vn 0.9016 -0.3102 -0.3016
vn 0.9074 0.2928 -0.3015
vn 0.3207 0.7540 -0.5733
vn 0.7600 0.3063 -0.5733
vn -0.3063 0.7599 -0.5733
vn -0.7539 0.3208 -0.5733
vn 0.5717 -0.5829 -0.5774
vn -0.5829 -0.5718 -0.5773
vn -0.5718 0.5828 -0.5773
vn 0.5828 0.5718 -0.5774
vn -0.7071 -0.7071 -0.0000
vn -0.7071 -0.0000 0.7071
vn -0.7071 0.7071 -0.0000
vn -0.7071 -0.0000 -0.7071
vn -0.0000 -0.7071 -0.7071
vn -0.0000 0.7071 -0.7071
vn 0.7071 -0.0000 -0.7071
vn 0.7071 -0.7071 -0.0000
vn 0.7071 0.7071 -0.0000
vn 0.7071 -0.0000 0.7071
vn -0.0000 -0.7071 0.7071
vn -0.0000 0.7071 0.7071
vn -0.7406 -0.6719 -0.0000
vn -0.7063 0.0344 0.7071
vn -0.6719 0.7407 -0.0000
vn -0.7063 0.0344 -0.7071
vn -0.0344 -0.7063 -0.7071
vn 0.6725 -0.7401 -0.0000
vn 0.5237 0.4751 -0.7071
vn 0.4272 0.9042 -0.0000
vn 0.5237 0.4751 0.7071
vn 0.9414 0.3373 -0.0000
vn 0.7063 -0.0344 -0.7071
vn 0.7063 -0.0344 0.7071
vn -0.0344 -0.7063 0.7071
vn 0.4365 0.7816 -0.4456
vn -0.3698 0.8019 -0.4692
vn -0.3698 0.8019 0.4692
vn 0.4365 0.7816 0.4456
vn 0.0388 0.9992 -0.0000
vn 0.0317 0.6499 0.7594
vn 0.0317 0.6499 -0.7594
vn 0.0324 0.6641 -0.7470
vn 0.0324 0.6641 0.7470
vn 0.0322 0.6608 -0.7499
vn 0.0322 0.6608 0.7499
vn -0.6299 -0.1380 -0.7644
vn 0.7603 -0.3395 -0.5537
vn 0.7603 -0.3395 0.5538
vn -0.6299 -0.1380 0.7644
vn 0.5244 -0.8515 -0.0000
vn -0.6449 -0.7642 -0.0000
vn -0.0332 -0.7063 -0.7071
vn -0.0331 -0.7063 0.7071
vn -0.0331 -0.7063 -0.7071
vn -0.0332 -0.7063 0.7071
vn -0.1018 -0.9948 -0.0000
vn 0.7071 -0.0068 -0.7071
vn -0.5048 -0.4952 0.7071
vn -0.0068 -0.7071 0.7071
vn 0.4952 -0.5048 0.7071
vn 0.0068 0.7071 -0.7071
vn 0.5048 0.4952 0.7071
vn 0.0068 0.7071 0.7071
vn -0.4952 0.5048 0.7071
vn -0.0068 -0.7071 -0.7071
vn -0.9275 -0.3738 -0.0000
vn -0.9202 0.3915 -0.0000
vn -0.3738 0.9275 -0.0000
vn 0.3915 0.9202 -0.0000
vn 0.9275 0.3738 -0.0000
vn 0.9202 -0.3915 -0.0000
vn 0.3738 -0.9275 -0.0000
vn -0.3915 -0.9202 -0.0000
vn -0.7071 0.0068 -0.7071
vn 0.5048 0.4952 -0.7071
vn -0.5048 -0.4952 -0.7071
vn 0.4952 -0.5048 -0.7071
vn -0.4952 0.5048 -0.7071
vn -0.7071 0.0068 0.7071
vn 0.7071 -0.0068 0.7071
vn 0.3914 0.9202 -0.0000
vn -0.3916 -0.9201 -0.0000
vn -0.0000 -1.0000 -0.0000
vt 0.375172 0.753330
vt 0.624828 0.753330
vt 0.624828 0.996670
vt 0.375172 0.996670
vt 0.375172 0.503330
vt 0.624828 0.503330
vt 0.624828 0.746670
vt 0.375172 0.746670
vt 0.125176 0.503167
vt 0.171706 0.503167
vt 0.171706 0.746833
vt 0.125176 0.746833
vt 0.628330 0.503330
vt 0.871670 0.503330
vt 0.871670 0.746670
vt 0.628330 0.746670
vt 0.375172 0.003330
vt 0.624828 0.003330
vt 0.624828 0.246670
vt 0.375172 0.246670
vt 0.375172 0.253330
vt 0.624828 0.253330
vt 0.624828 0.496670
vt 0.375172 0.496670
vt 0.375445 0.953306
vt 0.607465 0.959489
vt 0.624479 0.966683
vt 0.624482 0.999824
vt 0.375445 0.999824
vt 0.841903 0.746833
vt 0.841903 0.503167
vt 0.874824 0.503167
vt 0.874824 0.746833
vt 0.171706 0.746833
vt 0.268319 0.503167
vt 0.268319 0.746833
vt 0.375445 0.003167
vt 0.624555 0.003167
vt 0.624555 0.246833
vt 0.375445 0.246833
vt 0.375441 0.750171
vt 0.592311 0.750175
vt 0.624497 0.762897
vt 0.624462 0.834956
vt 0.397043 0.847102
vt 0.375321 0.839911
vt 0.638023 0.503167
vt 0.709927 0.503167
vt 0.709927 0.746833
vt 0.638023 0.746833
vt 0.624479 0.283317
vt 0.624467 0.290058
vt 0.607465 0.290511
vt 0.285123 0.746833
vt 0.285123 0.503167
vt 0.374831 0.503167
vt 0.374831 0.746833
vt 0.375321 0.410089
vt 0.397043 0.402899
vt 0.624462 0.415044
vt 0.624497 0.487103
vt 0.592311 0.499825
vt 0.375441 0.499829
vt 0.375445 0.503167
vt 0.592054 0.503167
vt 0.592055 0.746833
vt 0.375445 0.746833
vt 0.835110 0.746833
vt 0.835110 0.503167
vt 0.841903 0.503167
vt 0.841903 0.746833
vt 0.709927 0.746833
vt 0.828009 0.503167
vt 0.828009 0.746833
vt 0.624467 0.959942
vt 0.278329 0.746932
vt 0.273733 0.512414
vt 0.284831 0.503257
vt 0.284866 0.746853
vt 0.624467 0.290058
vt 0.623347 0.290088
vt 0.834796 0.503167
vt 0.834796 0.746833
vt 0.375445 0.250176
vt 0.624482 0.250176
vt 0.375445 0.296694
vt 0.607465 0.290511
vt 0.624493 0.296804
vt 0.624462 0.415044
vt 0.397043 0.402899
vt 0.375317 0.393467
vt 0.637408 0.503167
vt 0.637408 0.746833
vt 0.592938 0.746833
vt 0.592938 0.503167
vt 0.623347 0.959912
vt 0.000000 0.000000
vt 0.268592 0.746853
vt 0.268557 0.503256
vt 0.273542 0.512415
vt 0.278139 0.746932
vt 0.375317 0.856533
vt 0.397043 0.847101
vt 0.624462 0.834956
vt 0.624492 0.953196
vt 0.607465 0.959489
vt 0.375445 0.953306
vt 0.128330 0.746670
vt 0.128330 0.750000
vt 0.125000 0.746670
vt 0.625000 0.996670
vt 0.624828 1.000000
vt 0.128330 0.503330
vt 0.125000 0.503330
vt 0.128330 0.500000
vt 0.625000 0.253330
vt 0.624828 0.250000
vt 0.371670 0.746670
vt 0.375000 0.746670
vt 0.371670 0.750000
vt 0.625000 0.753330
vt 0.624828 0.750000
vt 0.371670 0.503330
vt 0.371670 0.500000
vt 0.375000 0.503330
vt 0.625000 0.503330
vt 0.624828 0.500000
vt 0.125176 0.750000
vt 0.125000 0.746833
vt 0.625000 0.999824
vt 0.624555 1.000000
vt 0.125000 0.503167
vt 0.125176 0.500000
vt 0.625000 0.250176
vt 0.624555 0.250000
vt 0.375000 0.746833
vt 0.374831 0.750000
vt 0.374831 0.500000
vt 0.375000 0.503167
vt 0.592315 0.750000
vt 0.592499 0.746833
vt 0.625000 0.763023
vt 0.624685 0.762722
vt 0.625000 0.486977
vt 0.624685 0.487278
vt 0.592814 0.499876
vt 0.592055 0.500000
vt 0.834956 0.503167
vt 0.834956 0.500000
vt 0.834956 0.746833
vt 0.834956 0.750000
vt 0.285116 0.500000
vt 0.284954 0.503167
vt 0.268536 0.500088
vt 0.268489 0.503167
vt 0.273708 0.512433
vt 0.273550 0.509456
vt 0.268433 0.750000
vt 0.268489 0.746833
vt 0.284898 0.750000
vt 0.284954 0.746833
vt 0.278313 0.746935
vt 0.278302 0.750000
vt 0.375172 0.000000
vt 0.624828 0.000000
vt 0.625000 0.003330
vt 0.625000 0.246670
vt 0.625000 0.496670
vt 0.375445 1.000000
vt 0.625000 0.003167
vt 0.625000 0.246833
vt 0.171694 0.500000
vt 0.592814 0.750124
vt 0.171694 0.750000
vt 0.625000 0.283097
vt 0.625000 0.289890
vt 0.624973 0.290045
vt 0.623820 0.290076
vt 0.623821 0.959924
vt 0.624973 0.959955
vt 0.625000 0.960110
vt 0.625000 0.966903
vt 0.625000 0.415073
vt 0.625000 0.834927
vt 0.625000 0.296991
vt 0.625000 0.953009
vt 0.284859 0.500079
vt 0.268580 0.750000
vt 0.171706 0.500000
vt 0.268433 0.500000
vt 0.285116 0.750000
vt 0.171706 0.750000
s 0
f 17/1/1 19/2/1 6/3/1 4/4/1
f 23/5/2 25/6/2 20/7/2 16/8/2
f 33/9/3 58/10/3 59/11/3 27/12/3
f 24/13/4 12/14/4 7/15/4 18/16/4
f 5/17/5 8/18/5 14/19/5 10/20/5
f 11/21/6 13/22/6 26/23/6 22/24/6
f 60/25/1 2/26/1 71/27/1 30/28/1 28/29/1
f 70/30/7 62/31/7 36/32/7 31/33/7
f 59/34/8 58/10/8 84/35/8 89/36/8
f 29/37/9 32/38/9 38/39/9 34/40/9
f 41/41/1 45/42/1 49/43/1 78/44/1 96/45/1 91/46/1
f 52/47/7 76/48/7 77/49/7 48/50/7
f 61/51/6 67/52/6 1/53/6
f 93/54/10 80/55/10 42/56/10 39/57/10
f 79/58/6 87/59/6 75/60/6 51/61/6 54/62/6 43/63/6
f 44/64/11 56/65/11 46/66/11 40/67/11
f 73/68/12 65/69/12 62/70/12 70/71/12
f 77/72/7 76/48/7 63/73/7 69/74/7
f 74/75/1 71/27/1 2/26/1
f 95/76/13 85/77/13 81/78/13 92/79/13
f 67/80/6 64/81/6 1/53/6
f 69/74/14 63/73/14 66/82/14 72/83/14
f 35/84/6 37/85/6 61/51/6 1/53/6 57/86/6
f 57/86/6 1/87/6 64/88/6 75/89/6 87/90/6 82/91/6
f 53/92/15 50/93/15 47/94/15 55/95/15
f 68/96/1 74/75/1 2/26/1
f 149/97/1 162/97/1 112/97/1 117/97/1 120/97/1 97/97/1
f 90/98/16 83/99/16 86/100/16 94/101/16
f 88/102/1 96/103/1 78/104/1 68/105/1 2/106/1 60/107/1
f 104/97/17 126/97/17 127/97/17 106/97/17
f 165/97/18 181/97/18 172/97/18 131/97/18
f 161/97/18 160/97/18 167/97/18 165/97/18
f 99/97/19 124/97/19 157/97/19 150/97/19
f 161/97/18 165/97/18 131/97/18 113/97/18
f 111/97/18 130/97/18 167/97/18 160/97/18
f 151/97/19 155/97/19 121/97/19 101/97/19
f 122/97/20 145/97/20 147/97/20 125/97/20
f 149/97/1 152/97/1 159/97/1 162/97/1
f 107/97/21 128/97/21 129/97/21 110/97/21
f 102/97/20 122/97/20 125/97/20 103/97/20
f 116/97/22 134/97/22 135/97/22 118/97/22
f 114/97/23 132/97/23 133/97/23 115/97/23
f 119/97/24 136/97/24 123/97/24 98/97/24
f 163/97/6 166/97/6 153/97/6 156/97/6
f 186/97/6 179/97/6 176/97/6 171/97/6 173/97/6 183/97/6
f 168/97/2 192/97/2 187/97/2 154/97/2
f 151/97/19 150/97/19 157/97/19 155/97/19
f 100/97/1 105/97/1 108/97/1 109/97/1 159/97/1 152/97/1
f 128/97/21 142/97/21 138/97/21 129/97/21
f 132/97/25 174/97/25 170/97/25 133/97/25
f 158/97/5 184/97/5 182/97/5 164/97/5
f 144/97/6 188/97/6 191/97/6 139/97/6 141/97/6 148/97/6
f 126/97/17 146/97/17 140/97/17 127/97/17
f 130/97/18 137/97/18 190/97/18 167/97/18
f 136/97/24 177/97/24 178/97/24 123/97/24
f 124/97/19 180/97/19 185/97/19 157/97/19
f 155/97/19 189/97/19 143/97/19 121/97/19
f 134/97/22 169/97/22 175/97/22 135/97/22
f 3/108/26 4/109/26 5/110/26
f 6/3/27 7/111/27 8/112/27
f 9/113/28 10/114/28 11/115/28
f 12/116/29 13/22/29 14/117/29
f 15/118/30 16/119/30 17/120/30
f 18/121/31 19/2/31 20/122/31
f 21/123/32 22/124/32 23/125/32
f 24/126/33 25/6/33 26/127/33
f 27/12/34 28/128/34 29/129/34
f 30/28/35 31/130/35 32/131/35
f 33/9/36 34/132/36 35/133/36
f 36/134/37 37/85/37 38/135/37
f 39/57/38 40/136/38 41/137/38
f 42/56/39 43/138/39 44/139/39
f 45/140/40 46/66/40 47/141/40
f 48/142/41 49/43/41 50/143/41
f 51/61/42 52/144/42 53/145/42
f 54/62/43 55/146/43 56/147/43
f 65/148/44 66/82/44 67/149/44
f 72/83/45 73/150/45 74/151/45
f 79/152/46 80/55/46 81/153/46
f 82/154/47 83/99/47 84/155/47
f 85/77/48 86/156/48 87/157/48
f 88/158/49 89/36/49 90/159/49
f 91/160/50 92/79/50 93/161/50
f 94/162/51 95/76/51 96/163/51
f 97/97/52 98/97/52 99/97/52
f 100/97/53 101/97/53 102/97/53
f 103/97/54 104/97/54 105/97/54
f 106/97/55 107/97/55 108/97/55
f 109/97/56 110/97/56 111/97/56
f 112/97/57 113/97/57 114/97/57
f 115/97/58 116/97/58 117/97/58
f 118/97/59 119/97/59 120/97/59
f 137/97/60 138/97/60 139/97/60
f 140/97/61 141/97/61 142/97/61
f 143/97/62 144/97/62 145/97/62
f 146/97/63 147/97/63 148/97/63
f 153/97/64 154/97/64 155/97/64
f 156/97/65 157/97/65 158/97/65
f 163/97/66 164/97/66 165/97/66
f 166/97/67 167/97/67 168/97/67
f 169/97/68 170/97/68 171/97/68
f 172/97/69 173/97/69 174/97/69
f 175/97/70 176/97/70 177/97/70
f 178/97/71 179/97/71 180/97/71
f 181/97/72 182/97/72 183/97/72
f 184/97/73 185/97/73 186/97/73
f 187/97/74 188/97/74 189/97/74
f 190/97/75 191/97/75 192/97/75
f 9/113/76 3/108/76 5/110/76 10/114/76
f 4/164/77 6/165/77 8/18/77 5/17/77
f 7/166/78 12/167/78 14/19/78 8/18/78
f 13/22/79 11/21/79 10/20/79 14/19/79
f 21/123/80 9/113/80 11/115/80 22/124/80
f 12/116/81 24/168/81 26/23/81 13/22/81
f 25/6/82 23/5/82 22/24/82 26/23/82
f 15/118/83 21/123/83 23/5/83 16/8/83
f 24/13/84 18/16/84 20/7/84 25/6/84
f 19/2/85 17/1/85 16/8/85 20/7/85
f 3/108/86 15/118/86 17/120/86 4/109/86
f 18/121/87 7/111/87 6/3/87 19/2/87
f 33/9/88 27/12/88 29/129/88 34/132/88
f 28/29/89 30/28/89 32/131/89 29/169/89
f 31/170/90 36/171/90 38/39/90 32/38/90
f 37/85/91 35/84/91 34/40/91 38/39/91
f 58/10/92 33/9/92 35/133/92 57/172/92
f 39/57/93 42/56/93 44/64/93 40/67/93
f 54/62/94 51/61/94 53/145/94 55/146/94
f 52/47/95 48/50/95 50/93/95 53/92/95
f 49/43/96 45/42/96 47/173/96 50/143/96
f 46/66/97 56/65/97 55/95/97 47/94/97
f 43/63/98 54/62/98 56/65/98 44/64/98
f 45/42/99 41/41/99 40/67/99 46/66/99
f 27/12/100 59/11/100 60/174/100 28/128/100
f 62/175/101 65/176/101 67/52/101 61/51/101
f 66/177/102 63/178/102 64/81/102 67/80/102
f 69/179/103 72/180/103 74/75/103 68/96/103
f 73/181/104 70/182/104 71/27/104 74/75/104
f 65/69/105 73/68/105 72/83/105 66/82/105
f 30/28/106 71/27/106 70/182/106 31/130/106
f 61/51/107 37/85/107 36/134/107 62/175/107
f 76/183/108 52/144/108 51/61/108 75/60/108
f 78/44/109 49/43/109 48/142/109 77/184/109
f 63/185/110 76/183/110 75/89/110 64/88/110
f 68/105/111 78/104/111 77/184/111 69/186/111
f 81/78/112 85/77/112 87/157/112 79/187/112
f 86/100/113 83/99/113 82/154/113 87/157/113
f 96/163/114 88/188/114 90/98/114 94/101/114
f 91/160/115 96/163/115 95/76/115 92/79/115
f 89/36/116 84/35/116 83/99/116 90/98/116
f 80/55/117 93/54/117 92/79/117 81/78/117
f 84/35/118 58/10/118 57/189/118 82/190/118
f 41/137/119 91/191/119 93/54/119 39/57/119
f 79/152/120 43/138/120 42/56/120 80/55/120
f 88/158/121 60/192/121 59/34/121 89/36/121
f 85/77/122 95/76/122 94/101/122 86/100/122
f 139/97/123 191/97/123 190/97/123 137/97/123
f 105/97/124 100/97/124 102/97/124 103/97/124
f 108/97/125 105/97/125 104/97/125 106/97/125
f 109/97/126 108/97/126 107/97/126 110/97/126
f 175/97/127 169/97/127 171/97/127 176/97/127
f 117/97/128 112/97/128 114/97/128 115/97/128
f 120/97/129 117/97/129 116/97/129 118/97/129
f 97/97/130 120/97/130 119/97/130 98/97/130
f 187/97/127 192/97/127 191/97/127 188/97/127
f 140/97/131 146/97/131 148/97/131 141/97/131
f 101/97/132 121/97/132 122/97/132 102/97/132
f 124/97/133 99/97/133 98/97/133 123/97/133
f 136/97/134 119/97/134 118/97/134 135/97/134
f 115/97/135 133/97/135 134/97/135 116/97/135
f 132/97/136 114/97/136 113/97/136 131/97/136
f 110/97/137 129/97/137 130/97/137 111/97/137
f 128/97/138 107/97/138 106/97/138 127/97/138
f 103/97/139 125/97/139 126/97/139 104/97/139
f 183/97/123 173/97/123 172/97/123 181/97/123
f 182/97/131 184/97/131 186/97/131 183/97/131
f 143/97/140 189/97/140 188/97/140 144/97/140
f 170/97/141 174/97/141 173/97/141 171/97/141
f 147/97/142 145/97/142 144/97/142 148/97/142
f 138/97/143 142/97/143 141/97/143 139/97/143
f 178/97/144 177/97/144 176/97/144 179/97/144
f 185/97/140 180/97/140 179/97/140 186/97/140
f 150/97/145 151/97/145 152/97/145 149/97/145
f 155/97/140 157/97/140 156/97/140 153/97/140
f 160/97/146 161/97/146 162/97/146 159/97/146
f 165/97/123 167/97/123 166/97/123 163/97/123
f 163/97/131 156/97/131 158/97/131 164/97/131
f 153/97/127 166/97/127 168/97/127 154/97/127
f 99/97/145 150/97/145 149/97/145 97/97/145
f 100/97/145 152/97/145 151/97/145 101/97/145
f 159/97/146 109/97/146 111/97/146 160/97/146
f 112/97/146 162/97/146 161/97/146 113/97/146
f 164/97/21 182/97/21 181/97/21 165/97/21
f 184/97/20 158/97/20 157/97/20 185/97/20
f 133/97/147 170/97/147 169/97/147 134/97/147
f 174/97/136 132/97/136 131/97/136 172/97/136
f 127/97/138 140/97/138 142/97/138 128/97/138
f 146/97/148 126/97/148 125/97/148 147/97/148
f 167/97/23 190/97/23 192/97/23 168/97/23
f 137/97/137 130/97/137 129/97/137 138/97/137
f 154/97/24 187/97/24 189/97/24 155/97/24
f 135/97/134 175/97/134 177/97/134 136/97/134
f 180/97/133 124/97/133 123/97/133 178/97/133
f 121/97/132 143/97/132 145/97/132 122/97/132
f 9/113/149 21/123/149 15/118/149 3/108/149
